ISO-10303-21;
HEADER;
FILE_DESCRIPTION (( 'STEP AP214' ),
    '1' );
FILE_NAME ('Nema17 Base.STEP',
    '2019-01-18T18:50:04',
    ( '' ),
    ( '' ),
    'SwSTEP 2.0',
    'SolidWorks 2018',
    '' );
FILE_SCHEMA (( 'AUTOMOTIVE_DESIGN' ));
ENDSEC;

DATA;
#1 = ORIENTED_EDGE ( 'NONE', *, *, #604, .F. ) ;
#2 = EDGE_CURVE ( 'NONE', #785, #269, #380, .T. ) ;
#3 = CARTESIAN_POINT ( 'NONE',  ( -40.85000000000000142, -0.001000000000007505302, -7.850000000000005862 ) ) ;
#4 = VECTOR ( 'NONE', #861, 1000.000000000000000 ) ;
#5 = EDGE_CURVE ( 'NONE', #197, #1319, #1287, .T. ) ;
#6 = VERTEX_POINT ( 'NONE', #1230 ) ;
#7 = EDGE_LOOP ( 'NONE', ( #1075, #1280, #9, #1372 ) ) ;
#8 = VECTOR ( 'NONE', #531, 1000.000000000000000 ) ;
#9 = ORIENTED_EDGE ( 'NONE', *, *, #432, .F. ) ;
#10 = CIRCLE ( 'NONE', #85, 2.149999999999999023 ) ;
#11 = AXIS2_PLACEMENT_3D ( 'NONE', #836, #635, #1082 ) ;
#12 = EDGE_LOOP ( 'NONE', ( #851, #734, #1248, #569 ) ) ;
#13 = CARTESIAN_POINT ( 'NONE',  ( -47.49999999999997868, 5.500000000000002665, 0.0000000000000000000 ) ) ;
#14 = CARTESIAN_POINT ( 'NONE',  ( -11.15000000000000036, -0.001000000000007505302, -12.15000000000000036 ) ) ;
#15 = EDGE_CURVE ( 'NONE', #375, #1026, #605, .T. ) ;
#16 = LINE ( 'NONE', #872, #1169 ) ;
#17 = CARTESIAN_POINT ( 'NONE',  ( -49.99999999999999289, 51.50000000000000711, 0.0000000000000000000 ) ) ;
#18 = ORIENTED_EDGE ( 'NONE', *, *, #435, .F. ) ;
#19 = ORIENTED_EDGE ( 'NONE', *, *, #207, .F. ) ;
#20 = ORIENTED_EDGE ( 'NONE', *, *, #460, .F. ) ;
#21 = VECTOR ( 'NONE', #329, 1000.000000000000000 ) ;
#22 = ORIENTED_EDGE ( 'NONE', *, *, #997, .T. ) ;
#23 = FACE_OUTER_BOUND ( 'NONE', #585, .T. ) ;
#24 = PLANE ( 'NONE',  #492 ) ;
#25 = ORIENTED_EDGE ( 'NONE', *, *, #340, .F. ) ;
#26 = DIRECTION ( 'NONE',  ( -1.000000000000000000, -2.312964634635741083E-15, 0.0000000000000000000 ) ) ;
#27 = DIRECTION ( 'NONE',  ( -1.000000000000000000, -0.0000000000000000000, -0.0000000000000000000 ) ) ;
#28 = CARTESIAN_POINT ( 'NONE',  ( -50.49999999999999289, 2.499999999999993783, 0.0000000000000000000 ) ) ;
#29 = ORIENTED_EDGE ( 'NONE', *, *, #432, .T. ) ;
#30 = CARTESIAN_POINT ( 'NONE',  ( 0.001000000000001000089, 14.50000000000013856, -40.50000000000029843 ) ) ;
#31 = ADVANCED_FACE ( 'NONE', ( #744, #810, #183 ), #1358, .T. ) ;
#32 = EDGE_CURVE ( 'NONE', #1106, #1149, #636, .T. ) ;
#33 = DIRECTION ( 'NONE',  ( 0.7999999999999998224, 0.6000000000000001998, -0.0000000000000000000 ) ) ;
#34 = ORIENTED_EDGE ( 'NONE', *, *, #32, .T. ) ;
#35 = CIRCLE ( 'NONE', #1362, 1.749999999999999778 ) ;
#36 = ORIENTED_EDGE ( 'NONE', *, *, #1345, .F. ) ;
#37 = ORIENTED_EDGE ( 'NONE', *, *, #1122, .F. ) ;
#38 = CARTESIAN_POINT ( 'NONE',  ( -47.49999999999997868, 5.500000000000002665, -2.500000000000000000 ) ) ;
#39 = LINE ( 'NONE', #1320, #1048 ) ;
#40 = DIRECTION ( 'NONE',  ( -1.000000000000000000, 0.0000000000000000000, 0.0000000000000000000 ) ) ;
#41 = ORIENTED_EDGE ( 'NONE', *, *, #405, .F. ) ;
#42 = CARTESIAN_POINT ( 'NONE',  ( -11.15000000000000036, -0.001000000000007505302, -12.15000000000000036 ) ) ;
#43 = CIRCLE ( 'NONE', #1153, 1.750000000000001554 ) ;
#44 = ORIENTED_EDGE ( 'NONE', *, *, #799, .F. ) ;
#45 = CARTESIAN_POINT ( 'NONE',  ( -53.00000000000000000, 14.50000000000013856, -38.75000000000030553 ) ) ;
#46 = DIRECTION ( 'NONE',  ( 0.7071067811865465735, 0.0000000000000000000, -0.7071067811865485719 ) ) ;
#47 = CARTESIAN_POINT ( 'NONE',  ( -11.15000000000000036, -0.001000000000007505302, -37.85000000000000142 ) ) ;
#48 = EDGE_CURVE ( 'NONE', #100, #868, #314, .T. ) ;
#49 = CARTESIAN_POINT ( 'NONE',  ( -53.00000000000000000, 2.499999999999993783, -50.00000000000000000 ) ) ;
#50 = CARTESIAN_POINT ( 'NONE',  ( -11.15000000000000036, -1.340641397266743862E-15, -42.14999999999999858 ) ) ;
#51 = VECTOR ( 'NONE', #1015, 1000.000000000000000 ) ;
#52 = CARTESIAN_POINT ( 'NONE',  ( -49.99999999999999289, 51.50000000000000711, -5.000000000000018652 ) ) ;
#53 = VECTOR ( 'NONE', #79, 1000.000000000000000 ) ;
#54 = ORIENTED_EDGE ( 'NONE', *, *, #435, .T. ) ;
#55 = EDGE_CURVE ( 'NONE', #194, #416, #258, .T. ) ;
#56 = LINE ( 'NONE', #1078, #398 ) ;
#57 = LINE ( 'NONE', #589, #1147 ) ;
#58 = VECTOR ( 'NONE', #347, 1000.000000000000000 ) ;
#59 = LINE ( 'NONE', #196, #400 ) ;
#60 = EDGE_LOOP ( 'NONE', ( #94, #332, #770, #280 ) ) ;
#61 = CARTESIAN_POINT ( 'NONE',  ( -49.99999999999997868, 14.49999999999981171, -9.500000000000301981 ) ) ;
#62 = DIRECTION ( 'NONE',  ( -1.202283597211648686E-16, 1.000000000000000000, -0.0000000000000000000 ) ) ;
#63 = MANIFOLD_SOLID_BREP ( 'Cut-Extrude3', #274 ) ;
#64 = CARTESIAN_POINT ( 'NONE',  ( -49.99999999999999289, 45.50000000000013500, -40.49999999999997868 ) ) ;
#65 = PRESENTATION_STYLE_ASSIGNMENT (( #996 ) ) ;
#66 = DIRECTION ( 'NONE',  ( 9.695120493249893013E-17, 1.000000000000000000, 0.0000000000000000000 ) ) ;
#67 = FACE_BOUND ( 'NONE', #338, .T. ) ;
#68 = VERTEX_POINT ( 'NONE', #1125 ) ;
#69 = AXIS2_PLACEMENT_3D ( 'NONE', #179, #1364, #704 ) ;
#70 = CARTESIAN_POINT ( 'NONE',  ( -49.99999999999997868, 14.50000000000013856, -40.50000000000029843 ) ) ;
#71 = CARTESIAN_POINT ( 'NONE',  ( -49.99999999999997868, 5.500000000000018652, 0.0000000000000000000 ) ) ;
#72 = CIRCLE ( 'NONE', #814, 2.500000000000002220 ) ;
#73 = AXIS2_PLACEMENT_3D ( 'NONE', #78, #913, #1025 ) ;
#74 = CARTESIAN_POINT ( 'NONE',  ( -49.49999999999998579, 3.500000000000000000, 0.0000000000000000000 ) ) ;
#75 = FACE_OUTER_BOUND ( 'NONE', #399, .T. ) ;
#76 = EDGE_LOOP ( 'NONE', ( #116, #707, #163, #968 ) ) ;
#77 = ORIENTED_EDGE ( 'NONE', *, *, #1032, .T. ) ;
#78 = CARTESIAN_POINT ( 'NONE',  ( 0.0000000000000000000, 0.0000000000000000000, 0.0000000000000000000 ) ) ;
#79 = DIRECTION ( 'NONE',  ( -9.695120493249893013E-17, -1.000000000000000000, 0.0000000000000000000 ) ) ;
#80 = EDGE_CURVE ( 'NONE', #1238, #1261, #641, .T. ) ;
#81 = DIRECTION ( 'NONE',  ( 3.965082230804134657E-16, -1.000000000000000000, 0.0000000000000000000 ) ) ;
#82 = VECTOR ( 'NONE', #137, 1000.000000000000000 ) ;
#83 = ORIENTED_EDGE ( 'NONE', *, *, #286, .T. ) ;
#84 = FACE_OUTER_BOUND ( 'NONE', #661, .T. ) ;
#85 = AXIS2_PLACEMENT_3D ( 'NONE', #306, #1043, #404 ) ;
#86 = LINE ( 'NONE', #935, #413 ) ;
#87 = CARTESIAN_POINT ( 'NONE',  ( -49.49999999999998579, 3.000000000000003553, -50.00000000000000000 ) ) ;
#88 = ORIENTED_EDGE ( 'NONE', *, *, #816, .T. ) ;
#89 = VECTOR ( 'NONE', #950, 1000.000000000000000 ) ;
#90 = ORIENTED_EDGE ( 'NONE', *, *, #55, .T. ) ;
#91 = CARTESIAN_POINT ( 'NONE',  ( -11.15000000000000036, 3.000000000000000000, -42.14999999999999858 ) ) ;
#92 = PRODUCT ( 'Nema17 Base', 'Nema17 Base', '', ( #614 ) ) ;
#93 = AXIS2_PLACEMENT_3D ( 'NONE', #793, #166, #392 ) ;
#94 = ORIENTED_EDGE ( 'NONE', *, *, #367, .T. ) ;
#95 = ADVANCED_FACE ( 'NONE', ( #429 ), #1195, .F. ) ;
#96 = FACE_BOUND ( 'NONE', #1031, .T. ) ;
#97 = ORIENTED_EDGE ( 'NONE', *, *, #906, .F. ) ;
#98 = ORIENTED_EDGE ( 'NONE', *, *, #694, .F. ) ;
#99 = LINE ( 'NONE', #1283, #596 ) ;
#100 = VERTEX_POINT ( 'NONE', #901 ) ;
#101 = DIRECTION ( 'NONE',  ( -1.000000000000000000, 0.0000000000000000000, 2.336327913773477411E-16 ) ) ;
#102 = EDGE_CURVE ( 'NONE', #523, #504, #130, .T. ) ;
#103 = DIRECTION ( 'NONE',  ( -1.000000000000000000, 0.0000000000000000000, 0.0000000000000000000 ) ) ;
#104 = LINE ( 'NONE', #50, #4 ) ;
#105 = ORIENTED_EDGE ( 'NONE', *, *, #727, .T. ) ;
#106 = LINE ( 'NONE', #549, #984 ) ;
#107 = DIRECTION ( 'NONE',  ( 9.695120493249893013E-17, 1.000000000000000000, 0.0000000000000000000 ) ) ;
#108 = CARTESIAN_POINT ( 'NONE',  ( -49.49999999999998579, 3.000000000000000000, 0.0000000000000000000 ) ) ;
#109 = LINE ( 'NONE', #17, #1291 ) ;
#110 = DIRECTION ( 'NONE',  ( 1.000000000000000000, 1.202283597211648686E-16, -0.0000000000000000000 ) ) ;
#111 = ADVANCED_FACE ( 'NONE', ( #899 ), #1033, .F. ) ;
#112 = AXIS2_PLACEMENT_3D ( 'NONE', #28, #206, #643 ) ;
#113 = ORIENTED_EDGE ( 'NONE', *, *, #1271, .F. ) ;
#114 = ADVANCED_FACE ( 'NONE', ( #1073 ), #659, .F. ) ;
#115 = CYLINDRICAL_SURFACE ( 'NONE', #1136, 1.749999999999994671 ) ;
#116 = ORIENTED_EDGE ( 'NONE', *, *, #5, .F. ) ;
#117 = DIRECTION ( 'NONE',  ( -1.000000000000000000, -0.0000000000000000000, -0.0000000000000000000 ) ) ;
#118 = DIRECTION ( 'NONE',  ( 2.044391222244494660E-16, -0.7071067811865460184, 0.7071067811865490160 ) ) ;
#119 = PLANE ( 'NONE',  #702 ) ;
#120 = ADVANCED_FACE ( 'NONE', ( #23 ), #336, .F. ) ;
#121 = ORIENTED_EDGE ( 'NONE', *, *, #997, .F. ) ;
#122 = DIRECTION ( 'NONE',  ( -2.891205793294678326E-16, 1.000000000000000000, -0.0000000000000000000 ) ) ;
#123 = DIRECTION ( 'NONE',  ( 0.0000000000000000000, 1.000000000000000000, -0.0000000000000000000 ) ) ;
#124 = VERTEX_POINT ( 'NONE', #1368 ) ;
#125 = ORIENTED_EDGE ( 'NONE', *, *, #320, .T. ) ;
#126 = ADVANCED_FACE ( 'NONE', ( #511 ), #115, .F. ) ;
#127 = LINE ( 'NONE', #558, #1275 ) ;
#128 = DIRECTION ( 'NONE',  ( -1.000000000000000000, -0.0000000000000000000, -0.0000000000000000000 ) ) ;
#129 = ORIENTED_EDGE ( 'NONE', *, *, #781, .T. ) ;
#130 = CIRCLE ( 'NONE', #69, 1.749999999999994671 ) ;
#131 = DIRECTION ( 'NONE',  ( -0.6000000000000001998, 0.7999999999999998224, 0.0000000000000000000 ) ) ;
#132 = ORIENTED_EDGE ( 'NONE', *, *, #922, .F. ) ;
#133 = DIRECTION ( 'NONE',  ( 0.0000000000000000000, 0.0000000000000000000, 1.000000000000000000 ) ) ;
#134 =( GEOMETRIC_REPRESENTATION_CONTEXT ( 3 ) GLOBAL_UNCERTAINTY_ASSIGNED_CONTEXT ( ( #391 ) ) GLOBAL_UNIT_ASSIGNED_CONTEXT ( ( #892, #261, #365 ) ) REPRESENTATION_CONTEXT ( 'NONE', 'WORKASPACE' ) );
#135 = CARTESIAN_POINT ( 'NONE',  ( -40.85000000000000142, -0.001000000000007505302, -42.14999999999999147 ) ) ;
#136 = CARTESIAN_POINT ( 'NONE',  ( -53.00000000000000000, 51.50000000000000000, -5.000000000000018652 ) ) ;
#137 = DIRECTION ( 'NONE',  ( -0.0000000000000000000, 1.000000000000000000, -0.0000000000000000000 ) ) ;
#138 = DIRECTION ( 'NONE',  ( -0.0000000000000000000, 1.000000000000000000, -0.0000000000000000000 ) ) ;
#139 = AXIS2_PLACEMENT_3D ( 'NONE', #170, #279, #893 ) ;
#140 = DIRECTION ( 'NONE',  ( 1.000000000000000000, 1.202283597211648193E-16, 0.0000000000000000000 ) ) ;
#141 = FACE_BOUND ( 'NONE', #1171, .T. ) ;
#142 = ORIENTED_EDGE ( 'NONE', *, *, #811, .F. ) ;
#143 = CARTESIAN_POINT ( 'NONE',  ( -5.000000000000004441, 3.000000000000000000, 0.0000000000000000000 ) ) ;
#144 = FACE_OUTER_BOUND ( 'NONE', #472, .T. ) ;
#145 = DIRECTION ( 'NONE',  ( -1.000000000000000000, 0.0000000000000000000, 0.0000000000000000000 ) ) ;
#146 = CYLINDRICAL_SURFACE ( 'NONE', #1256, 2.149999999999999023 ) ;
#147 = ORIENTED_EDGE ( 'NONE', *, *, #48, .T. ) ;
#148 = ORIENTED_EDGE ( 'NONE', *, *, #460, .T. ) ;
#149 = CARTESIAN_POINT ( 'NONE',  ( -40.85000000000000142, 3.000000000000000000, -12.15000000000000391 ) ) ;
#150 = EDGE_CURVE ( 'NONE', #259, #468, #597, .T. ) ;
#151 = DIRECTION ( 'NONE',  ( 0.0000000000000000000, 0.0000000000000000000, 1.000000000000000000 ) ) ;
#152 = CARTESIAN_POINT ( 'NONE',  ( -53.00000000000000000, 45.50000000000013500, -38.74999999999998579 ) ) ;
#153 = FILL_AREA_STYLE_COLOUR ( '', #1257 ) ;
#154 = CARTESIAN_POINT ( 'NONE',  ( 0.001000000000001000089, 45.50000000000013500, -40.49999999999997868 ) ) ;
#155 = CARTESIAN_POINT ( 'NONE',  ( -53.00000000000000000, 14.49999999999981171, -11.25000000000030198 ) ) ;
#156 = PLANE ( 'NONE',  #726 ) ;
#157 = CARTESIAN_POINT ( 'NONE',  ( -53.00000000000000000, 41.04999999999999005, -25.00000000000000000 ) ) ;
#158 = CARTESIAN_POINT ( 'NONE',  ( -49.99999999999999289, 51.50000000000000711, 0.0000000000000000000 ) ) ;
#159 =( GEOMETRIC_REPRESENTATION_CONTEXT ( 3 ) GLOBAL_UNCERTAINTY_ASSIGNED_CONTEXT ( ( #481 ) ) GLOBAL_UNIT_ASSIGNED_CONTEXT ( ( #1349, #361, #1115 ) ) REPRESENTATION_CONTEXT ( 'NONE', 'WORKASPACE' ) );
#160 = DIRECTION ( 'NONE',  ( -1.000000000000000000, -2.891205793294678819E-16, 0.0000000000000000000 ) ) ;
#161 = ORIENTED_EDGE ( 'NONE', *, *, #801, .F. ) ;
#162 = VECTOR ( 'NONE', #437, 1000.000000000000000 ) ;
#163 = ORIENTED_EDGE ( 'NONE', *, *, #937, .F. ) ;
#164 = VECTOR ( 'NONE', #192, 1000.000000000000000 ) ;
#165 = ORIENTED_EDGE ( 'NONE', *, *, #5, .T. ) ;
#166 = DIRECTION ( 'NONE',  ( -1.000000000000000000, -0.0000000000000000000, -0.0000000000000000000 ) ) ;
#167 = DIRECTION ( 'NONE',  ( 1.000000000000000000, -0.0000000000000000000, -2.336327913773477411E-16 ) ) ;
#168 = DIRECTION ( 'NONE',  ( 0.0000000000000000000, 1.000000000000000000, 0.0000000000000000000 ) ) ;
#169 = CARTESIAN_POINT ( 'NONE',  ( -50.49999999999999289, 2.499999999999993783, -50.00000000000000000 ) ) ;
#170 = CARTESIAN_POINT ( 'NONE',  ( 0.0000000000000000000, 0.0000000000000000000, -50.00000000000000000 ) ) ;
#171 = ORIENTED_EDGE ( 'NONE', *, *, #601, .F. ) ;
#172 = AXIS2_PLACEMENT_3D ( 'NONE', #1240, #684, #278 ) ;
#173 = DIRECTION ( 'NONE',  ( 0.0000000000000000000, 0.0000000000000000000, 1.000000000000000000 ) ) ;
#174 = VECTOR ( 'NONE', #754, 1000.000000000000000 ) ;
#175 = LINE ( 'NONE', #446, #1276 ) ;
#176 = EDGE_LOOP ( 'NONE', ( #1213, #767 ) ) ;
#177 = LINE ( 'NONE', #497, #883 ) ;
#178 = ORIENTED_EDGE ( 'NONE', *, *, #286, .F. ) ;
#179 = CARTESIAN_POINT ( 'NONE',  ( -53.00000000000000000, 14.50000000000013856, -40.50000000000029843 ) ) ;
#180 = AXIS2_PLACEMENT_3D ( 'NONE', #1193, #215, #326 ) ;
#181 = DIRECTION ( 'NONE',  ( -1.000000000000000000, 0.0000000000000000000, 0.0000000000000000000 ) ) ;
#182 = SURFACE_STYLE_FILL_AREA ( #887 ) ;
#183 = FACE_OUTER_BOUND ( 'NONE', #1366, .T. ) ;
#184 = ORIENTED_EDGE ( 'NONE', *, *, #484, .F. ) ;
#185 = ORIENTED_EDGE ( 'NONE', *, *, #388, .T. ) ;
#186 = FACE_OUTER_BOUND ( 'NONE', #753, .T. ) ;
#187 = EDGE_LOOP ( 'NONE', ( #1191, #1197, #1324, #877 ) ) ;
#188 = LINE ( 'NONE', #309, #164 ) ;
#189 = ORIENTED_EDGE ( 'NONE', *, *, #1189, .T. ) ;
#190 = AXIS2_PLACEMENT_3D ( 'NONE', #1019, #921, #509 ) ;
#191 = ORIENTED_EDGE ( 'NONE', *, *, #764, .T. ) ;
#192 = DIRECTION ( 'NONE',  ( -1.000000000000000000, -2.312964634635741083E-15, 0.0000000000000000000 ) ) ;
#193 = FACE_OUTER_BOUND ( 'NONE', #1210, .T. ) ;
#194 = VERTEX_POINT ( 'NONE', #87 ) ;
#195 = CARTESIAN_POINT ( 'NONE',  ( -53.00000000000000000, 29.99999999999998579, -25.00000000000000000 ) ) ;
#196 = CARTESIAN_POINT ( 'NONE',  ( -11.15000000000000036, 3.000000000000000000, -7.850000000000003197 ) ) ;
#197 = VERTEX_POINT ( 'NONE', #1263 ) ;
#198 = LINE ( 'NONE', #979, #1353 ) ;
#199 = ORIENTED_EDGE ( 'NONE', *, *, #1226, .T. ) ;
#200 = LINE ( 'NONE', #1100, #609 ) ;
#201 = EDGE_CURVE ( 'NONE', #594, #259, #818, .T. ) ;
#202 = ORIENTED_EDGE ( 'NONE', *, *, #349, .T. ) ;
#203 = ORIENTED_EDGE ( 'NONE', *, *, #1208, .T. ) ;
#204 = CARTESIAN_POINT ( 'NONE',  ( -49.99999999999998579, 18.94999999999998153, -25.00000000000000000 ) ) ;
#205 = ADVANCED_FACE ( 'NONE', ( #1279 ), #374, .F. ) ;
#206 = DIRECTION ( 'NONE',  ( 0.0000000000000000000, 0.0000000000000000000, 1.000000000000000000 ) ) ;
#207 = EDGE_CURVE ( 'NONE', #1135, #454, #1373, .T. ) ;
#208 = DIRECTION ( 'NONE',  ( 0.0000000000000000000, 0.0000000000000000000, 1.000000000000000000 ) ) ;
#209 = CARTESIAN_POINT ( 'NONE',  ( -34.99999999999998579, 3.000000000000000000, -2.500000000000000000 ) ) ;
#210 = CIRCLE ( 'NONE', #856, 1.750000000000004219 ) ;
#211 = ADVANCED_FACE ( 'NONE', ( #1294 ), #1211, .T. ) ;
#212 = ORIENTED_EDGE ( 'NONE', *, *, #1160, .F. ) ;
#213 = ORIENTED_EDGE ( 'NONE', *, *, #911, .T. ) ;
#214 = ORIENTED_EDGE ( 'NONE', *, *, #1233, .F. ) ;
#215 = DIRECTION ( 'NONE',  ( 0.0000000000000000000, 1.000000000000000000, 0.0000000000000000000 ) ) ;
#216 = CARTESIAN_POINT ( 'NONE',  ( -53.00000000000000000, 51.50000000000000000, -50.00000000000000000 ) ) ;
#217 = LINE ( 'NONE', #1041, #804 ) ;
#218 = AXIS2_PLACEMENT_3D ( 'NONE', #978, #342, #681 ) ;
#219 = ORIENTED_EDGE ( 'NONE', *, *, #598, .F. ) ;
#220 = LINE ( 'NONE', #91, #612 ) ;
#221 = EDGE_CURVE ( 'NONE', #503, #1099, #788, .T. ) ;
#222 = EDGE_LOOP ( 'NONE', ( #918, #265, #191, #302 ) ) ;
#223 = DIRECTION ( 'NONE',  ( -1.000000000000000000, -0.0000000000000000000, -0.0000000000000000000 ) ) ;
#224 = ADVANCED_FACE ( 'NONE', ( #75 ), #602, .T. ) ;
#225 = CARTESIAN_POINT ( 'NONE',  ( 0.0000000000000000000, 0.0000000000000000000, -45.00000000000000000 ) ) ;
#226 = DIRECTION ( 'NONE',  ( 0.0000000000000000000, 1.000000000000000000, 0.0000000000000000000 ) ) ;
#227 = CARTESIAN_POINT ( 'NONE',  ( -47.49999999999997868, 5.500000000000002665, -2.500000000000000000 ) ) ;
#228 = ADVANCED_FACE ( 'NONE', ( #989 ), #710, .F. ) ;
#229 = CIRCLE ( 'NONE', #426, 2.149999999999999023 ) ;
#230 = DIRECTION ( 'NONE',  ( 0.0000000000000000000, 0.0000000000000000000, -1.000000000000000000 ) ) ;
#231 = EDGE_LOOP ( 'NONE', ( #824, #584, #325, #787 ) ) ;
#232 = CARTESIAN_POINT ( 'NONE',  ( -47.49999999999997868, 3.000000000000000000, 0.0000000000000000000 ) ) ;
#233 = CARTESIAN_POINT ( 'NONE',  ( -50.49999999999999289, 2.499999999999993783, -50.00000000000000000 ) ) ;
#234 = ORIENTED_EDGE ( 'NONE', *, *, #576, .T. ) ;
#235 = FACE_OUTER_BOUND ( 'NONE', #1090, .T. ) ;
#236 = VERTEX_POINT ( 'NONE', #1027 ) ;
#237 = FACE_OUTER_BOUND ( 'NONE', #1089, .T. ) ;
#238 = CARTESIAN_POINT ( 'NONE',  ( -53.00000000000000000, 14.49999999999981171, -7.750000000000301981 ) ) ;
#239 = EDGE_LOOP ( 'NONE', ( #212, #1266, #1067, #293 ) ) ;
#240 = EDGE_CURVE ( 'NONE', #561, #927, #177, .T. ) ;
#241 = DIRECTION ( 'NONE',  ( 0.6000000000000001998, -0.7999999999999998224, 0.0000000000000000000 ) ) ;
#242 = CARTESIAN_POINT ( 'NONE',  ( -49.99999999999999289, 51.50000000000000711, -50.00000000000000000 ) ) ;
#243 = DIRECTION ( 'NONE',  ( 0.0000000000000000000, 0.0000000000000000000, 1.000000000000000000 ) ) ;
#244 = AXIS2_PLACEMENT_3D ( 'NONE', #665, #981, #241 ) ;
#245 = CARTESIAN_POINT ( 'NONE',  ( -34.99999999999998579, 3.000000000000000000, -2.500000000000000000 ) ) ;
#246 = FACE_OUTER_BOUND ( 'NONE', #409, .T. ) ;
#247 = EDGE_CURVE ( 'NONE', #269, #1030, #220, .T. ) ;
#248 = MECHANICAL_DESIGN_GEOMETRIC_PRESENTATION_REPRESENTATION (  '', ( #1363 ), #159 ) ;
#249 = CARTESIAN_POINT ( 'NONE',  ( -40.85000000000000142, -4.911328494609585983E-15, -12.15000000000000568 ) ) ;
#250 = ORIENTED_EDGE ( 'NONE', *, *, #340, .T. ) ;
#251 = EDGE_LOOP ( 'NONE', ( #822, #464, #303, #491 ) ) ;
#252 = EDGE_LOOP ( 'NONE', ( #1113, #234 ) ) ;
#253 = DIRECTION ( 'NONE',  ( -1.000000000000000000, -0.0000000000000000000, -0.0000000000000000000 ) ) ;
#254 = SURFACE_SIDE_STYLE ('',( #182 ) ) ;
#255 = LINE ( 'NONE', #1196, #382 ) ;
#256 = DIRECTION ( 'NONE',  ( 1.000000000000000000, 0.0000000000000000000, 0.0000000000000000000 ) ) ;
#257 = ORIENTED_EDGE ( 'NONE', *, *, #480, .T. ) ;
#258 = LINE ( 'NONE', #1120, #1228 ) ;
#259 = VERTEX_POINT ( 'NONE', #724 ) ;
#260 = CARTESIAN_POINT ( 'NONE',  ( -50.49999999999999289, 2.499999999999993783, 0.0000000000000000000 ) ) ;
#261 =( NAMED_UNIT ( * ) PLANE_ANGLE_UNIT ( ) SI_UNIT ( $, .RADIAN. ) );
#262 = CARTESIAN_POINT ( 'NONE',  ( -11.15000000000000036, 3.000000000000000000, -12.15000000000000036 ) ) ;
#263 = DIRECTION ( 'NONE',  ( -0.0000000000000000000, 0.0000000000000000000, -1.000000000000000000 ) ) ;
#264 = CARTESIAN_POINT ( 'NONE',  ( -11.15000000000000036, -1.340641397266743862E-15, -37.85000000000000142 ) ) ;
#265 = ORIENTED_EDGE ( 'NONE', *, *, #711, .T. ) ;
#266 = EDGE_CURVE ( 'NONE', #1319, #194, #919, .T. ) ;
#267 = CYLINDRICAL_SURFACE ( 'NONE', #1057, 11.05000000000000426 ) ;
#268 =( NAMED_UNIT ( * ) PLANE_ANGLE_UNIT ( ) SI_UNIT ( $, .RADIAN. ) );
#269 = VERTEX_POINT ( 'NONE', #820 ) ;
#270 = DIRECTION ( 'NONE',  ( 0.0000000000000000000, 1.000000000000000000, 0.0000000000000000000 ) ) ;
#271 = ORIENTED_EDGE ( 'NONE', *, *, #764, .F. ) ;
#272 = EDGE_CURVE ( 'NONE', #1313, #322, #385, .T. ) ;
#273 = LINE ( 'NONE', #967, #8 ) ;
#274 = CLOSED_SHELL ( 'NONE', ( #953, #954, #95, #421, #205, #1088, #31, #638, #1077, #1277, #1156, #969, #283, #1298, #1059, #1194, #647, #1058, #126, #120, #111, #1042, #323, #224, #433, #412, #749, #517, #211, #739, #327, #532, #755, #1159, #114, #1068, #534, #228 ) ) ;
#275 = VECTOR ( 'NONE', #118, 1000.000000000000114 ) ;
#276 = ORIENTED_EDGE ( 'NONE', *, *, #480, .F. ) ;
#277 = DIRECTION ( 'NONE',  ( -9.695120493249893013E-17, -1.000000000000000000, 0.0000000000000000000 ) ) ;
#278 = DIRECTION ( 'NONE',  ( 0.0000000000000000000, 0.0000000000000000000, 1.000000000000000000 ) ) ;
#279 = DIRECTION ( 'NONE',  ( 1.202283597211648686E-16, -1.000000000000000000, 0.0000000000000000000 ) ) ;
#280 = ORIENTED_EDGE ( 'NONE', *, *, #741, .F. ) ;
#281 = EDGE_CURVE ( 'NONE', #1202, #1107, #1179, .T. ) ;
#282 = CARTESIAN_POINT ( 'NONE',  ( -11.15000000000000036, -0.001000000000007505302, -40.00000000000000000 ) ) ;
#283 = ADVANCED_FACE ( 'NONE', ( #1265 ), #1114, .F. ) ;
#284 = FACE_OUTER_BOUND ( 'NONE', #337, .T. ) ;
#285 = EDGE_LOOP ( 'NONE', ( #720, #271 ) ) ;
#286 = EDGE_CURVE ( 'NONE', #548, #1227, #1150, .T. ) ;
#287 = ORIENTED_EDGE ( 'NONE', *, *, #723, .T. ) ;
#288 = CARTESIAN_POINT ( 'NONE',  ( -53.00000000000000000, 14.49999999999981171, -9.500000000000301981 ) ) ;
#289 = VECTOR ( 'NONE', #742, 1000.000000000000000 ) ;
#290 = LINE ( 'NONE', #135, #946 ) ;
#291 = EDGE_CURVE ( 'NONE', #1107, #653, #59, .T. ) ;
#292 = VERTEX_POINT ( 'NONE', #628 ) ;
#293 = ORIENTED_EDGE ( 'NONE', *, *, #1233, .T. ) ;
#294 = ORIENTED_EDGE ( 'NONE', *, *, #664, .F. ) ;
#295 = VERTEX_POINT ( 'NONE', #419 ) ;
#296 = DIRECTION ( 'NONE',  ( 0.0000000000000000000, 1.000000000000000000, 0.0000000000000000000 ) ) ;
#297 = AXIS2_PLACEMENT_3D ( 'NONE', #1301, #253, #869 ) ;
#298 = CIRCLE ( 'NONE', #513, 1.749999999999998002 ) ;
#299 = CARTESIAN_POINT ( 'NONE',  ( -47.49999999999997868, 5.500000000000002665, -2.500000000000000000 ) ) ;
#300 = CARTESIAN_POINT ( 'NONE',  ( -49.99999999999998579, 23.00000000000000000, -2.500000000000000000 ) ) ;
#301 = CIRCLE ( 'NONE', #457, 1.750000000000001554 ) ;
#302 = ORIENTED_EDGE ( 'NONE', *, *, #1097, .F. ) ;
#303 = ORIENTED_EDGE ( 'NONE', *, *, #957, .T. ) ;
#304 = EDGE_CURVE ( 'NONE', #486, #236, #849, .T. ) ;
#305 = LINE ( 'NONE', #1065, #174 ) ;
#306 = CARTESIAN_POINT ( 'NONE',  ( -11.15000000000000036, 3.000000000000000000, -10.00000000000000178 ) ) ;
#307 = CYLINDRICAL_SURFACE ( 'NONE', #645, 2.500000000000002220 ) ;
#308 = VERTEX_POINT ( 'NONE', #631 ) ;
#309 = CARTESIAN_POINT ( 'NONE',  ( -53.00000000000000000, 51.50000000000000000, -45.00000000000001421 ) ) ;
#310 = AXIS2_PLACEMENT_3D ( 'NONE', #1235, #1351, #783 ) ;
#311 = VECTOR ( 'NONE', #1200, 1000.000000000000114 ) ;
#312 = CARTESIAN_POINT ( 'NONE',  ( -49.99999999999999289, 46.49999999999999289, -50.00000000000000000 ) ) ;
#313 = CARTESIAN_POINT ( 'NONE',  ( -49.49999999999998579, 3.500000000000000000, -50.00000000000000000 ) ) ;
#314 = LINE ( 'NONE', #466, #949 ) ;
#315 = EDGE_CURVE ( 'NONE', #1261, #561, #750, .T. ) ;
#316 = ORIENTED_EDGE ( 'NONE', *, *, #566, .F. ) ;
#317 = VECTOR ( 'NONE', #1009, 1000.000000000000000 ) ;
#318 = AXIS2_PLACEMENT_3D ( 'NONE', #30, #321, #1296 ) ;
#319 = LINE ( 'NONE', #583, #847 ) ;
#320 = EDGE_CURVE ( 'NONE', #1180, #493, #188, .T. ) ;
#321 = DIRECTION ( 'NONE',  ( -1.000000000000000000, -0.0000000000000000000, -0.0000000000000000000 ) ) ;
#322 = VERTEX_POINT ( 'NONE', #837 ) ;
#323 = ADVANCED_FACE ( 'NONE', ( #733 ), #1168, .F. ) ;
#324 = VECTOR ( 'NONE', #728, 1000.000000000000000 ) ;
#325 = ORIENTED_EDGE ( 'NONE', *, *, #566, .T. ) ;
#326 = DIRECTION ( 'NONE',  ( 0.0000000000000000000, 0.0000000000000000000, 1.000000000000000000 ) ) ;
#327 = ADVANCED_FACE ( 'NONE', ( #1134 ), #450, .F. ) ;
#328 = CARTESIAN_POINT ( 'NONE',  ( -5.000000000000029310, -6.011417986058278930E-16, -50.00000000000000000 ) ) ;
#329 = DIRECTION ( 'NONE',  ( 0.0000000000000000000, 0.0000000000000000000, 1.000000000000000000 ) ) ;
#330 = VECTOR ( 'NONE', #990, 1000.000000000000000 ) ;
#331 = ORIENTED_EDGE ( 'NONE', *, *, #272, .T. ) ;
#332 = ORIENTED_EDGE ( 'NONE', *, *, #630, .T. ) ;
#333 = CIRCLE ( 'NONE', #180, 2.149999999999999023 ) ;
#334 = DIRECTION ( 'NONE',  ( -1.000000000000000000, -0.0000000000000000000, -0.0000000000000000000 ) ) ;
#335 = DIRECTION ( 'NONE',  ( 0.0000000000000000000, 1.000000000000000000, 0.0000000000000000000 ) ) ;
#336 = CYLINDRICAL_SURFACE ( 'NONE', #190, 1.749999999999999778 ) ;
#337 = EDGE_LOOP ( 'NONE', ( #841, #1293, #539, #1252, #595, #287, #1222, #199 ) ) ;
#338 = EDGE_LOOP ( 'NONE', ( #876, #1376 ) ) ;
#339 = EDGE_LOOP ( 'NONE', ( #1094, #178 ) ) ;
#340 = EDGE_CURVE ( 'NONE', #691, #503, #217, .T. ) ;
#341 = CARTESIAN_POINT ( 'NONE',  ( -53.00000000000000000, 45.50000000000013500, -40.49999999999997868 ) ) ;
#342 = DIRECTION ( 'NONE',  ( 0.7071067811865485719, -6.855485445197675209E-17, 0.7071067811865465735 ) ) ;
#343 = CARTESIAN_POINT ( 'NONE',  ( -53.00100000000001188, 29.99999999999998579, -25.00000000000000000 ) ) ;
#344 = DIRECTION ( 'NONE',  ( 1.000000000000000000, 2.891205793294678326E-16, -0.0000000000000000000 ) ) ;
#345 = CARTESIAN_POINT ( 'NONE',  ( -40.85000000000000142, -4.911308786417246941E-15, -37.84999999999999432 ) ) ;
#346 = AXIS2_PLACEMENT_3D ( 'NONE', #524, #514, #133 ) ;
#347 = DIRECTION ( 'NONE',  ( 1.000000000000000000, -1.734723475976809560E-16, 0.0000000000000000000 ) ) ;
#348 = DIRECTION ( 'NONE',  ( 1.000000000000000000, 2.312964634635741083E-15, 0.0000000000000000000 ) ) ;
#349 = EDGE_CURVE ( 'NONE', #653, #718, #10, .T. ) ;
#350 = CARTESIAN_POINT ( 'NONE',  ( -27.25000000000013500, 3.000000000000000000, -72.24999999999998579 ) ) ;
#351 = LINE ( 'NONE', #1321, #634 ) ;
#352 = CYLINDRICAL_SURFACE ( 'NONE', #318, 1.749999999999994671 ) ;
#353 = LINE ( 'NONE', #542, #1174 ) ;
#354 = CIRCLE ( 'NONE', #590, 11.05000000000000426 ) ;
#355 = ORIENTED_EDGE ( 'NONE', *, *, #775, .F. ) ;
#356 = CARTESIAN_POINT ( 'NONE',  ( -11.15000000000000036, -1.340641397266743862E-15, -40.00000000000000000 ) ) ;
#357 = DIRECTION ( 'NONE',  ( 1.000000000000000000, 0.0000000000000000000, 0.0000000000000000000 ) ) ;
#358 = EDGE_CURVE ( 'NONE', #1148, #1123, #1314, .T. ) ;
#359 = ORIENTED_EDGE ( 'NONE', *, *, #1371, .F. ) ;
#360 = CARTESIAN_POINT ( 'NONE',  ( -49.99999999999999289, 45.50000000000013500, -38.74999999999998579 ) ) ;
#361 =( NAMED_UNIT ( * ) PLANE_ANGLE_UNIT ( ) SI_UNIT ( $, .RADIAN. ) );
#362 = DIRECTION ( 'NONE',  ( 1.000000000000000000, 0.0000000000000000000, 1.168163956886738705E-16 ) ) ;
#363 = ORIENTED_EDGE ( 'NONE', *, *, #688, .T. ) ;
#364 = DIRECTION ( 'NONE',  ( -0.0000000000000000000, 0.0000000000000000000, -1.000000000000000000 ) ) ;
#365 =( NAMED_UNIT ( * ) SI_UNIT ( $, .STERADIAN. ) SOLID_ANGLE_UNIT ( ) );
#366 = FACE_OUTER_BOUND ( 'NONE', #1151, .T. ) ;
#367 = EDGE_CURVE ( 'NONE', #679, #718, #747, .T. ) ;
#368 = ORIENTED_EDGE ( 'NONE', *, *, #1122, .T. ) ;
#369 = EDGE_CURVE ( 'NONE', #415, #1086, #1003, .T. ) ;
#370 = ORIENTED_EDGE ( 'NONE', *, *, #1258, .F. ) ;
#371 = SURFACE_SIDE_STYLE ('',( #970 ) ) ;
#372 = LINE ( 'NONE', #866, #966 ) ;
#373 = CARTESIAN_POINT ( 'NONE',  ( -49.99999999999998579, 29.99999999999998579, -25.00000000000000000 ) ) ;
#374 = CYLINDRICAL_SURFACE ( 'NONE', #626, 11.05000000000000426 ) ;
#375 = VERTEX_POINT ( 'NONE', #522 ) ;
#376 = DIRECTION ( 'NONE',  ( 1.000000000000000000, 2.891205793294678819E-16, 0.0000000000000000000 ) ) ;
#377 = DIRECTION ( 'NONE',  ( 1.000000000000000000, 1.202283597211648193E-16, 0.0000000000000000000 ) ) ;
#378 = VECTOR ( 'NONE', #886, 1000.000000000000000 ) ;
#379 = DIRECTION ( 'NONE',  ( 0.0000000000000000000, 0.0000000000000000000, -1.000000000000000000 ) ) ;
#380 = CIRCLE ( 'NONE', #172, 2.149999999999999023 ) ;
#381 = CIRCLE ( 'NONE', #680, 2.149999999999999023 ) ;
#382 = VECTOR ( 'NONE', #859, 1000.000000000000000 ) ;
#383 = CARTESIAN_POINT ( 'NONE',  ( 2.908536147974967657E-16, 3.000000000000000000, -45.00000000000000000 ) ) ;
#384 = VERTEX_POINT ( 'NONE', #1299 ) ;
#385 = LINE ( 'NONE', #300, #89 ) ;
#386 = ORIENTED_EDGE ( 'NONE', *, *, #604, .T. ) ;
#387 = AXIS2_PLACEMENT_3D ( 'NONE', #64, #895, #1217 ) ;
#388 = EDGE_CURVE ( 'NONE', #6, #620, #86, .T. ) ;
#389 = DIRECTION ( 'NONE',  ( -0.0000000000000000000, 1.000000000000000000, -0.0000000000000000000 ) ) ;
#390 = EDGE_CURVE ( 'NONE', #295, #124, #43, .T. ) ;
#391 = UNCERTAINTY_MEASURE_WITH_UNIT (LENGTH_MEASURE( 1.000000000000000082E-05 ), #892, 'distance_accuracy_value', 'NONE');
#392 = DIRECTION ( 'NONE',  ( 0.0000000000000000000, 0.0000000000000000000, 1.000000000000000000 ) ) ;
#393 = EDGE_CURVE ( 'NONE', #292, #1106, #526, .T. ) ;
#394 = ORIENTED_EDGE ( 'NONE', *, *, #367, .F. ) ;
#395 = DIRECTION ( 'NONE',  ( 0.0000000000000000000, 0.0000000000000000000, 1.000000000000000000 ) ) ;
#396 = DIRECTION ( 'NONE',  ( -1.635512977795601447E-15, 0.7071067811865491270, 0.7071067811865460184 ) ) ;
#397 = ORIENTED_EDGE ( 'NONE', *, *, #586, .T. ) ;
#398 = VECTOR ( 'NONE', #110, 1000.000000000000000 ) ;
#399 = EDGE_LOOP ( 'NONE', ( #276, #1052, #1, #762 ) ) ;
#400 = VECTOR ( 'NONE', #1267, 1000.000000000000000 ) ;
#401 = VERTEX_POINT ( 'NONE', #973 ) ;
#402 = DIRECTION ( 'NONE',  ( -1.000000000000000000, -2.312964634635741083E-15, 0.0000000000000000000 ) ) ;
#403 = AXIS2_PLACEMENT_3D ( 'NONE', #154, #896, #693 ) ;
#404 = DIRECTION ( 'NONE',  ( 0.0000000000000000000, 0.0000000000000000000, -1.000000000000000000 ) ) ;
#405 = EDGE_CURVE ( 'NONE', #493, #756, #1355, .T. ) ;
#406 = EDGE_LOOP ( 'NONE', ( #1034, #465, #83, #988 ) ) ;
#407 = FACE_BOUND ( 'NONE', #285, .T. ) ;
#408 = AXIS2_PLACEMENT_3D ( 'NONE', #42, #993, #448 ) ;
#409 = EDGE_LOOP ( 'NONE', ( #41, #77, #862, #129, #479, #386 ) ) ;
#410 = EDGE_CURVE ( 'NONE', #594, #578, #1177, .T. ) ;
#411 = VECTOR ( 'NONE', #839, 1000.000000000000000 ) ;
#412 = ADVANCED_FACE ( 'NONE', ( #186 ), #307, .T. ) ;
#413 = VECTOR ( 'NONE', #423, 1000.000000000000000 ) ;
#414 = CARTESIAN_POINT ( 'NONE',  ( -49.99999999999997868, 5.500000000000018652, -47.50000000000000000 ) ) ;
#415 = VERTEX_POINT ( 'NONE', #559 ) ;
#416 = VERTEX_POINT ( 'NONE', #1285 ) ;
#417 = DIRECTION ( 'NONE',  ( 0.0000000000000000000, 0.0000000000000000000, 1.000000000000000000 ) ) ;
#418 = EDGE_CURVE ( 'NONE', #1255, #236, #1334, .T. ) ;
#419 = CARTESIAN_POINT ( 'NONE',  ( -49.99999999999999289, 45.49999999999980815, -11.24999999999998224 ) ) ;
#420 = CARTESIAN_POINT ( 'NONE',  ( -11.15000000000000036, -1.340641397266743862E-15, -12.15000000000000036 ) ) ;
#421 = ADVANCED_FACE ( 'NONE', ( #427 ), #1110, .F. ) ;
#422 = EDGE_CURVE ( 'NONE', #495, #68, #544, .T. ) ;
#423 = DIRECTION ( 'NONE',  ( 0.0000000000000000000, 0.0000000000000000000, -1.000000000000000000 ) ) ;
#424 = CARTESIAN_POINT ( 'NONE',  ( -49.99999999999997868, 14.49999999999981171, -7.750000000000301981 ) ) ;
#425 = ORIENTED_EDGE ( 'NONE', *, *, #576, .F. ) ;
#426 = AXIS2_PLACEMENT_3D ( 'NONE', #1201, #670, #140 ) ;
#427 = FACE_OUTER_BOUND ( 'NONE', #406, .T. ) ;
#428 = ORIENTED_EDGE ( 'NONE', *, *, #247, .T. ) ;
#429 = FACE_OUTER_BOUND ( 'NONE', #222, .T. ) ;
#430 = PLANE ( 'NONE',  #571 ) ;
#431 = ORIENTED_EDGE ( 'NONE', *, *, #2, .F. ) ;
#432 = EDGE_CURVE ( 'NONE', #1249, #1107, #917, .T. ) ;
#433 = ADVANCED_FACE ( 'NONE', ( #237 ), #24, .T. ) ;
#434 = CARTESIAN_POINT ( 'NONE',  ( -49.49999999999998579, 3.000000000000000000, -50.00000000000000000 ) ) ;
#435 = EDGE_CURVE ( 'NONE', #1202, #644, #255, .T. ) ;
#436 = DIRECTION ( 'NONE',  ( 0.0000000000000000000, 0.0000000000000000000, 1.000000000000000000 ) ) ;
#437 = DIRECTION ( 'NONE',  ( -1.000000000000000000, -1.202283597211648686E-16, -1.168163956886738705E-16 ) ) ;
#438 = DIRECTION ( 'NONE',  ( -1.202283597211648686E-16, 1.000000000000000000, -0.0000000000000000000 ) ) ;
#439 = DIRECTION ( 'NONE',  ( 0.0000000000000000000, 0.0000000000000000000, 1.000000000000000000 ) ) ;
#440 = ORIENTED_EDGE ( 'NONE', *, *, #529, .F. ) ;
#441 = DIRECTION ( 'NONE',  ( -0.0000000000000000000, 1.000000000000000000, -0.0000000000000000000 ) ) ;
#442 = CARTESIAN_POINT ( 'NONE',  ( -49.99999999999998579, 23.00000000000000000, -2.500000000000000000 ) ) ;
#443 = CYLINDRICAL_SURFACE ( 'NONE', #1204, 2.500000000000002220 ) ;
#444 = DIRECTION ( 'NONE',  ( 0.0000000000000000000, 1.000000000000000000, 0.0000000000000000000 ) ) ;
#445 = ORIENTED_EDGE ( 'NONE', *, *, #1160, .T. ) ;
#446 = CARTESIAN_POINT ( 'NONE',  ( -11.15000000000000036, 3.000000000000000000, -37.85000000000000142 ) ) ;
#447 = CIRCLE ( 'NONE', #738, 1.749999999999994671 ) ;
#448 = DIRECTION ( 'NONE',  ( -1.000000000000000000, 0.0000000000000000000, -1.168163956886738705E-16 ) ) ;
#449 = AXIS2_PLACEMENT_3D ( 'NONE', #599, #696, #1219 ) ;
#450 = CYLINDRICAL_SURFACE ( 'NONE', #1172, 2.149999999999999023 ) ;
#451 = DIRECTION ( 'NONE',  ( 0.0000000000000000000, 0.0000000000000000000, 1.000000000000000000 ) ) ;
#452 = EDGE_LOOP ( 'NONE', ( #1231, #428, #20, #737 ) ) ;
#453 = VECTOR ( 'NONE', #402, 1000.000000000000000 ) ;
#454 = VERTEX_POINT ( 'NONE', #854 ) ;
#455 = CARTESIAN_POINT ( 'NONE',  ( 0.0000000000000000000, 0.0000000000000000000, -5.000000000000018652 ) ) ;
#456 = CARTESIAN_POINT ( 'NONE',  ( -49.99999999999997868, 5.500000000000018652, -2.500000000000000000 ) ) ;
#457 = AXIS2_PLACEMENT_3D ( 'NONE', #870, #1318, #335 ) ;
#458 = CARTESIAN_POINT ( 'NONE',  ( -49.99999999999997868, 3.500000000000000000, 0.0000000000000000000 ) ) ;
#459 = CARTESIAN_POINT ( 'NONE',  ( 0.001000000000001000089, 14.50000000000013856, -42.25000000000029132 ) ) ;
#460 = EDGE_CURVE ( 'NONE', #698, #1030, #290, .T. ) ;
#461 = ORIENTED_EDGE ( 'NONE', *, *, #201, .T. ) ;
#462 = LINE ( 'NONE', #1343, #925 ) ;
#463 = CARTESIAN_POINT ( 'NONE',  ( -49.99999999999997868, 14.50000000000013856, -40.50000000000029843 ) ) ;
#464 = ORIENTED_EDGE ( 'NONE', *, *, #1208, .F. ) ;
#465 = ORIENTED_EDGE ( 'NONE', *, *, #858, .T. ) ;
#466 = CARTESIAN_POINT ( 'NONE',  ( -50.50000000000009948, 46.49999999999999289, -50.00000000000000000 ) ) ;
#467 = CARTESIAN_POINT ( 'NONE',  ( -49.99999999999998579, 23.00000000000000000, -50.00000000000000000 ) ) ;
#468 = VERTEX_POINT ( 'NONE', #743 ) ;
#469 = EDGE_CURVE ( 'NONE', #1026, #1148, #109, .T. ) ;
#470 = VECTOR ( 'NONE', #662, 1000.000000000000000 ) ;
#471 = ORIENTED_EDGE ( 'NONE', *, *, #1246, .T. ) ;
#472 = EDGE_LOOP ( 'NONE', ( #819, #507, #910, #600 ) ) ;
#473 = DIRECTION ( 'NONE',  ( -1.000000000000000000, -2.891205793294678819E-16, 0.0000000000000000000 ) ) ;
#474 = PLANE ( 'NONE',  #867 ) ;
#475 = ORIENTED_EDGE ( 'NONE', *, *, #15, .F. ) ;
#476 = CARTESIAN_POINT ( 'NONE',  ( -40.85000000000000142, -4.911308786417246941E-15, -10.00000000000000533 ) ) ;
#477 = CARTESIAN_POINT ( 'NONE',  ( -4.814824860968089633E-32, 9.629649721936179265E-32, -5.000000000000018652 ) ) ;
#478 = DIRECTION ( 'NONE',  ( -0.0000000000000000000, 1.000000000000000000, -0.0000000000000000000 ) ) ;
#479 = ORIENTED_EDGE ( 'NONE', *, *, #240, .F. ) ;
#480 = EDGE_CURVE ( 'NONE', #648, #1261, #1096, .T. ) ;
#481 = UNCERTAINTY_MEASURE_WITH_UNIT (LENGTH_MEASURE( 1.000000000000000082E-05 ), #1349, 'distance_accuracy_value', 'NONE');
#482 = CARTESIAN_POINT ( 'NONE',  ( -50.49999999999999289, -6.071532165918824042E-15, -50.00000000000000000 ) ) ;
#483 = FACE_BOUND ( 'NONE', #231, .T. ) ;
#484 = EDGE_CURVE ( 'NONE', #620, #578, #815, .T. ) ;
#485 = ORIENTED_EDGE ( 'NONE', *, *, #498, .T. ) ;
#486 = VERTEX_POINT ( 'NONE', #143 ) ;
#487 = DIRECTION ( 'NONE',  ( 0.0000000000000000000, 0.0000000000000000000, 1.000000000000000000 ) ) ;
#488 = LINE ( 'NONE', #1004, #701 ) ;
#489 = ORIENTED_EDGE ( 'NONE', *, *, #1007, .T. ) ;
#490 = VECTOR ( 'NONE', #986, 1000.000000000000000 ) ;
#491 = ORIENTED_EDGE ( 'NONE', *, *, #1375, .T. ) ;
#492 = AXIS2_PLACEMENT_3D ( 'NONE', #865, #33, #131 ) ;
#493 = VERTEX_POINT ( 'NONE', #1074 ) ;
#494 = EDGE_CURVE ( 'NONE', #578, #868, #881, .T. ) ;
#495 = VERTEX_POINT ( 'NONE', #345 ) ;
#496 = CARTESIAN_POINT ( 'NONE',  ( -11.15000000000000036, -0.001000000000007505302, -42.14999999999999858 ) ) ;
#497 = CARTESIAN_POINT ( 'NONE',  ( -53.00000000000000000, 2.499999999999993783, 0.0000000000000000000 ) ) ;
#498 = EDGE_CURVE ( 'NONE', #401, #864, #675, .T. ) ;
#499 = ORIENTED_EDGE ( 'NONE', *, *, #741, .T. ) ;
#500 = AXIS2_PLACEMENT_3D ( 'NONE', #13, #732, #103 ) ;
#501 = LINE ( 'NONE', #1326, #1127 ) ;
#502 = DIRECTION ( 'NONE',  ( 1.000000000000000000, 2.312964634635741083E-15, 0.0000000000000000000 ) ) ;
#503 = VERTEX_POINT ( 'NONE', #238 ) ;
#504 = VERTEX_POINT ( 'NONE', #45 ) ;
#505 = EDGE_CURVE ( 'NONE', #555, #1249, #200, .T. ) ;
#506 = PRODUCT_DEFINITION_SHAPE ( 'NONE', 'NONE',  #1142 ) ;
#507 = ORIENTED_EDGE ( 'NONE', *, *, #727, .F. ) ;
#508 = CIRCLE ( 'NONE', #1010, 11.05000000000000426 ) ;
#509 = DIRECTION ( 'NONE',  ( 0.0000000000000000000, 0.0000000000000000000, 1.000000000000000000 ) ) ;
#510 = ORIENTED_EDGE ( 'NONE', *, *, #1339, .F. ) ;
#511 = FACE_OUTER_BOUND ( 'NONE', #239, .T. ) ;
#512 = ORIENTED_EDGE ( 'NONE', *, *, #781, .F. ) ;
#513 = AXIS2_PLACEMENT_3D ( 'NONE', #463, #1001, #1229 ) ;
#514 = DIRECTION ( 'NONE',  ( -1.000000000000000000, 0.0000000000000000000, 0.0000000000000000000 ) ) ;
#515 = CARTESIAN_POINT ( 'NONE',  ( -47.49999999999997868, 5.500000000000002665, -47.50000000000000000 ) ) ;
#516 = CARTESIAN_POINT ( 'NONE',  ( -40.85000000000000142, 3.000000000000000000, -7.850000000000005862 ) ) ;
#517 = ADVANCED_FACE ( 'NONE', ( #716 ), #871, .F. ) ;
#518 = DIRECTION ( 'NONE',  ( 1.000000000000000000, 2.891205793294678819E-16, 0.0000000000000000000 ) ) ;
#519 = ORIENTED_EDGE ( 'NONE', *, *, #632, .T. ) ;
#520 = ORIENTED_EDGE ( 'NONE', *, *, #905, .T. ) ;
#521 = LINE ( 'NONE', #49, #378 ) ;
#522 = CARTESIAN_POINT ( 'NONE',  ( -49.99999999999997868, 3.500000000000000000, -50.00000000000000000 ) ) ;
#523 = VERTEX_POINT ( 'NONE', #1206 ) ;
#524 = CARTESIAN_POINT ( 'NONE',  ( -53.00000000000000000, 2.499999999999993783, -50.00000000000000000 ) ) ;
#525 = CYLINDRICAL_SURFACE ( 'NONE', #1331, 2.149999999999999023 ) ;
#526 = LINE ( 'NONE', #1182, #470 ) ;
#527 = ORIENTED_EDGE ( 'NONE', *, *, #393, .F. ) ;
#528 = DIRECTION ( 'NONE',  ( 1.635512977795594545E-15, -0.7071067811865461294, 0.7071067811865490160 ) ) ;
#529 = EDGE_CURVE ( 'NONE', #68, #785, #175, .T. ) ;
#530 = DIRECTION ( 'NONE',  ( 0.0000000000000000000, 0.0000000000000000000, 1.000000000000000000 ) ) ;
#531 = DIRECTION ( 'NONE',  ( -2.891205793294678326E-16, 1.000000000000000000, -0.0000000000000000000 ) ) ;
#532 = ADVANCED_FACE ( 'NONE', ( #786 ), #1126, .F. ) ;
#533 = DIRECTION ( 'NONE',  ( -1.000000000000000000, -0.0000000000000000000, -0.0000000000000000000 ) ) ;
#534 = ADVANCED_FACE ( 'NONE', ( #639 ), #146, .F. ) ;
#535 = DIRECTION ( 'NONE',  ( -0.0000000000000000000, 1.000000000000000000, -0.0000000000000000000 ) ) ;
#536 = FACE_BOUND ( 'NONE', #1309, .T. ) ;
#537 = DIRECTION ( 'NONE',  ( -1.000000000000000000, -0.0000000000000000000, -0.0000000000000000000 ) ) ;
#538 = VECTOR ( 'NONE', #1333, 1000.000000000000000 ) ;
#539 = ORIENTED_EDGE ( 'NONE', *, *, #80, .T. ) ;
#540 = EDGE_CURVE ( 'NONE', #671, #864, #354, .T. ) ;
#541 = ORIENTED_EDGE ( 'NONE', *, *, #834, .T. ) ;
#542 = CARTESIAN_POINT ( 'NONE',  ( -47.49999999999996447, 3.000000000000000888, -2.500000000000000000 ) ) ;
#543 = DIRECTION ( 'NONE',  ( 0.0000000000000000000, 0.0000000000000000000, -1.000000000000000000 ) ) ;
#544 = LINE ( 'NONE', #655, #564 ) ;
#545 = CARTESIAN_POINT ( 'NONE',  ( -34.99999999999998579, 3.000000000000000000, -2.500000000000000000 ) ) ;
#546 = ORIENTED_EDGE ( 'NONE', *, *, #405, .T. ) ;
#547 = CIRCLE ( 'NONE', #1029, 11.05000000000000426 ) ;
#548 = VERTEX_POINT ( 'NONE', #994 ) ;
#549 = CARTESIAN_POINT ( 'NONE',  ( 0.001000000000001000089, 45.49999999999980815, -11.24999999999998224 ) ) ;
#550 = DIRECTION ( 'NONE',  ( 0.0000000000000000000, 0.0000000000000000000, 1.000000000000000000 ) ) ;
#551 = CARTESIAN_POINT ( 'NONE',  ( -53.00100000000001188, 41.04999999999999005, -25.00000000000000000 ) ) ;
#552 = CARTESIAN_POINT ( 'NONE',  ( -50.49999999999999289, -6.071532165918824042E-15, 0.0000000000000000000 ) ) ;
#553 = CARTESIAN_POINT ( 'NONE',  ( -40.85000000000000142, 3.000000000000000000, -10.00000000000000533 ) ) ;
#554 = DIRECTION ( 'NONE',  ( 0.0000000000000000000, -0.0000000000000000000, 1.000000000000000000 ) ) ;
#555 = VERTEX_POINT ( 'NONE', #249 ) ;
#556 = CARTESIAN_POINT ( 'NONE',  ( -49.99999999999997868, 14.49999999999981171, -9.500000000000301981 ) ) ;
#557 = CIRCLE ( 'NONE', #987, 1.749999999999994671 ) ;
#558 = CARTESIAN_POINT ( 'NONE',  ( 0.0000000000000000000, 0.0000000000000000000, -50.00000000000000000 ) ) ;
#559 = CARTESIAN_POINT ( 'NONE',  ( -53.00000000000000000, 2.499999999999993783, -50.00000000000000000 ) ) ;
#560 = ORIENTED_EDGE ( 'NONE', *, *, #494, .F. ) ;
#561 = VERTEX_POINT ( 'NONE', #1108 ) ;
#562 = MECHANICAL_DESIGN_GEOMETRIC_PRESENTATION_REPRESENTATION (  '', ( #1079 ), #134 ) ;
#563 = LINE ( 'NONE', #414, #637 ) ;
#564 = VECTOR ( 'NONE', #441, 1000.000000000000000 ) ;
#565 = DIRECTION ( 'NONE',  ( -0.0000000000000000000, 1.000000000000000000, -0.0000000000000000000 ) ) ;
#566 = EDGE_CURVE ( 'NONE', #416, #1026, #1035, .T. ) ;
#567 = DIRECTION ( 'NONE',  ( 0.0000000000000000000, 0.0000000000000000000, 1.000000000000000000 ) ) ;
#568 = EDGE_LOOP ( 'NONE', ( #425, #485, #813, #44 ) ) ;
#569 = ORIENTED_EDGE ( 'NONE', *, *, #911, .F. ) ;
#570 = DIRECTION ( 'NONE',  ( -2.891205793294678326E-16, 1.000000000000000000, -0.0000000000000000000 ) ) ;
#571 = AXIS2_PLACEMENT_3D ( 'NONE', #1190, #554, #951 ) ;
#572 = DIRECTION ( 'NONE',  ( 0.0000000000000000000, 0.0000000000000000000, 1.000000000000000000 ) ) ;
#573 = CARTESIAN_POINT ( 'NONE',  ( -49.99999999999998579, 23.00000000000000000, 0.0000000000000000000 ) ) ;
#574 = FACE_BOUND ( 'NONE', #339, .T. ) ;
#575 = CARTESIAN_POINT ( 'NONE',  ( -40.85000000000000142, -0.001000000000007505302, -39.99999999999999289 ) ) ;
#576 = EDGE_CURVE ( 'NONE', #401, #1316, #508, .T. ) ;
#577 = EDGE_LOOP ( 'NONE', ( #316, #934, #1278, #933 ) ) ;
#578 = VERTEX_POINT ( 'NONE', #467 ) ;
#579 = CYLINDRICAL_SURFACE ( 'NONE', #650, 1.749999999999999778 ) ;
#580 = PLANE ( 'NONE',  #408 ) ;
#581 = AXIS2_PLACEMENT_3D ( 'NONE', #1063, #550, #846 ) ;
#582 = CIRCLE ( 'NONE', #1183, 1.749999999999994671 ) ;
#583 = CARTESIAN_POINT ( 'NONE',  ( -53.00000000000000000, 49.50000000000009237, -3.000000000000113687 ) ) ;
#584 = ORIENTED_EDGE ( 'NONE', *, *, #844, .T. ) ;
#585 = EDGE_LOOP ( 'NONE', ( #37, #142, #250, #1152 ) ) ;
#586 = EDGE_CURVE ( 'NONE', #495, #308, #985, .T. ) ;
#587 = DIRECTION ( 'NONE',  ( -1.000000000000000000, 0.0000000000000000000, 0.0000000000000000000 ) ) ;
#588 = SURFACE_STYLE_USAGE ( .BOTH. , #371 ) ;
#589 = CARTESIAN_POINT ( 'NONE',  ( -11.15000000000000036, -0.001000000000007505302, -7.850000000000003197 ) ) ;
#590 = AXIS2_PLACEMENT_3D ( 'NONE', #373, #376, #168 ) ;
#591 = DIRECTION ( 'NONE',  ( 0.0000000000000000000, 1.000000000000000000, 0.0000000000000000000 ) ) ;
#592 = DIRECTION ( 'NONE',  ( 0.0000000000000000000, 0.0000000000000000000, 1.000000000000000000 ) ) ;
#593 = LINE ( 'NONE', #629, #51 ) ;
#594 = VERTEX_POINT ( 'NONE', #1220 ) ;
#595 = ORIENTED_EDGE ( 'NONE', *, *, #240, .T. ) ;
#596 = VECTOR ( 'NONE', #334, 1000.000000000000000 ) ;
#597 = CIRCLE ( 'NONE', #1103, 2.500000000000002220 ) ;
#598 = EDGE_CURVE ( 'NONE', #644, #653, #57, .T. ) ;
#599 = CARTESIAN_POINT ( 'NONE',  ( -49.49999999999998579, 3.000000000000000000, -50.00000000000000000 ) ) ;
#600 = ORIENTED_EDGE ( 'NONE', *, *, #272, .F. ) ;
#601 = EDGE_CURVE ( 'NONE', #771, #691, #1070, .T. ) ;
#602 = PLANE ( 'NONE',  #1322 ) ;
#603 = LINE ( 'NONE', #459, #1141 ) ;
#604 = EDGE_CURVE ( 'NONE', #561, #756, #319, .T. ) ;
#605 = LINE ( 'NONE', #1014, #538 ) ;
#606 = ORIENTED_EDGE ( 'NONE', *, *, #304, .F. ) ;
#607 = DIRECTION ( 'NONE',  ( 9.695120493249893013E-17, 1.000000000000000000, 0.0000000000000000000 ) ) ;
#608 = VECTOR ( 'NONE', #107, 1000.000000000000000 ) ;
#609 = VECTOR ( 'NONE', #138, 1000.000000000000000 ) ;
#610 = AXIS2_PLACEMENT_3D ( 'NONE', #61, #903, #777 ) ;
#611 = ORIENTED_EDGE ( 'NONE', *, *, #586, .F. ) ;
#612 = VECTOR ( 'NONE', #101, 1000.000000000000000 ) ;
#613 = ORIENTED_EDGE ( 'NONE', *, *, #1354, .T. ) ;
#614 = PRODUCT_CONTEXT ( 'NONE', #1130, 'mechanical' ) ;
#615 = DIRECTION ( 'NONE',  ( -1.000000000000000000, -0.0000000000000000000, -0.0000000000000000000 ) ) ;
#616 = EDGE_CURVE ( 'NONE', #948, #1132, #582, .T. ) ;
#617 = ORIENTED_EDGE ( 'NONE', *, *, #1251, .T. ) ;
#618 = CARTESIAN_POINT ( 'NONE',  ( 0.0000000000000000000, 0.0000000000000000000, 0.0000000000000000000 ) ) ;
#619 = FACE_OUTER_BOUND ( 'NONE', #60, .T. ) ;
#620 = VERTEX_POINT ( 'NONE', #1346 ) ;
#621 = ORIENTED_EDGE ( 'NONE', *, *, #540, .F. ) ;
#622 = VECTOR ( 'NONE', #533, 1000.000000000000000 ) ;
#623 = DIRECTION ( 'NONE',  ( -1.000000000000000000, -2.312964634635741083E-15, 0.0000000000000000000 ) ) ;
#624 = COLOUR_RGB ( '',0.7921568627450980005, 0.8196078431372548767, 0.9333333333333333481 ) ;
#625 = ORIENTED_EDGE ( 'NONE', *, *, #801, .T. ) ;
#626 = AXIS2_PLACEMENT_3D ( 'NONE', #713, #1039, #296 ) ;
#627 = DIRECTION ( 'NONE',  ( 0.0000000000000000000, 1.000000000000000000, 0.0000000000000000000 ) ) ;
#628 = CARTESIAN_POINT ( 'NONE',  ( 2.908536147974967657E-16, 3.000000000000000000, -45.00000000000000000 ) ) ;
#629 = CARTESIAN_POINT ( 'NONE',  ( 0.001000000000001000089, 14.49999999999981171, -11.25000000000030198 ) ) ;
#630 = EDGE_CURVE ( 'NONE', #718, #1249, #1018, .T. ) ;
#631 = CARTESIAN_POINT ( 'NONE',  ( -11.15000000000000036, -1.340641397266743862E-15, -37.85000000000000142 ) ) ;
#632 = EDGE_CURVE ( 'NONE', #975, #712, #488, .T. ) ;
#633 = AXIS2_PLACEMENT_3D ( 'NONE', #556, #660, #444 ) ;
#634 = VECTOR ( 'NONE', #678, 1000.000000000000000 ) ;
#635 = DIRECTION ( 'NONE',  ( -0.0000000000000000000, -0.0000000000000000000, -1.000000000000000000 ) ) ;
#636 = LINE ( 'NONE', #477, #53 ) ;
#637 = VECTOR ( 'NONE', #855, 1000.000000000000000 ) ;
#638 = ADVANCED_FACE ( 'NONE', ( #1092 ), #1223, .T. ) ;
#639 = FACE_OUTER_BOUND ( 'NONE', #714, .T. ) ;
#640 = ORIENTED_EDGE ( 'NONE', *, *, #201, .F. ) ;
#641 = LINE ( 'NONE', #158, #1250 ) ;
#642 = DIRECTION ( 'NONE',  ( -0.0000000000000000000, 1.000000000000000000, -0.0000000000000000000 ) ) ;
#643 = DIRECTION ( 'NONE',  ( -1.000000000000000000, 0.0000000000000000000, 0.0000000000000000000 ) ) ;
#644 = VERTEX_POINT ( 'NONE', #784 ) ;
#645 = AXIS2_PLACEMENT_3D ( 'NONE', #38, #976, #1083 ) ;
#646 = CARTESIAN_POINT ( 'NONE',  ( 0.001000000000001000089, 45.49999999999980815, -7.749999999999975131 ) ) ;
#647 = ADVANCED_FACE ( 'NONE', ( #930 ), #863, .F. ) ;
#648 = VERTEX_POINT ( 'NONE', #1061 ) ;
#649 = CARTESIAN_POINT ( 'NONE',  ( 0.001000000000001000089, 45.49999999999980815, -9.499999999999978684 ) ) ;
#650 = AXIS2_PLACEMENT_3D ( 'NONE', #1188, #117, #843 ) ;
#651 = CIRCLE ( 'NONE', #717, 1.749999999999998002 ) ;
#652 = ORIENTED_EDGE ( 'NONE', *, *, #1116, .F. ) ;
#653 = VERTEX_POINT ( 'NONE', #961 ) ;
#654 = DIRECTION ( 'NONE',  ( 0.0000000000000000000, 0.0000000000000000000, 1.000000000000000000 ) ) ;
#655 = CARTESIAN_POINT ( 'NONE',  ( -40.85000000000000142, -0.001000000000007505302, -37.84999999999999432 ) ) ;
#656 = LINE ( 'NONE', #1170, #162 ) ;
#657 = PLANE ( 'NONE',  #1166 ) ;
#658 = ORIENTED_EDGE ( 'NONE', *, *, #281, .T. ) ;
#659 = CYLINDRICAL_SURFACE ( 'NONE', #760, 2.149999999999999023 ) ;
#660 = DIRECTION ( 'NONE',  ( -1.000000000000000000, -2.891205793294678819E-16, 0.0000000000000000000 ) ) ;
#661 = EDGE_LOOP ( 'NONE', ( #171, #368, #1049, #25 ) ) ;
#662 = DIRECTION ( 'NONE',  ( 0.0000000000000000000, 0.0000000000000000000, 1.000000000000000000 ) ) ;
#663 = AXIS2_PLACEMENT_3D ( 'NONE', #74, #1215, #256 ) ;
#664 = EDGE_CURVE ( 'NONE', #236, #1238, #305, .T. ) ;
#665 = CARTESIAN_POINT ( 'NONE',  ( -49.99999999999998579, 23.00000000000000000, -47.50000000000000000 ) ) ;
#666 = DIRECTION ( 'NONE',  ( -0.0000000000000000000, 0.0000000000000000000, -1.000000000000000000 ) ) ;
#667 = CARTESIAN_POINT ( 'NONE',  ( -49.99999999999999289, 51.50000000000000711, -45.00000000000001421 ) ) ;
#668 = LINE ( 'NONE', #759, #82 ) ;
#669 = DIRECTION ( 'NONE',  ( -0.6000000000000001998, 0.7999999999999998224, 0.0000000000000000000 ) ) ;
#670 = DIRECTION ( 'NONE',  ( -1.202283597211648686E-16, 1.000000000000000000, -0.0000000000000000000 ) ) ;
#671 = VERTEX_POINT ( 'NONE', #955 ) ;
#672 = EDGE_CURVE ( 'NONE', #259, #197, #563, .T. ) ;
#673 = DIRECTION ( 'NONE',  ( 0.0000000000000000000, 0.0000000000000000000, -1.000000000000000000 ) ) ;
#674 = CIRCLE ( 'NONE', #112, 2.500000000000002220 ) ;
#675 = LINE ( 'NONE', #765, #490 ) ;
#676 = ORIENTED_EDGE ( 'NONE', *, *, #1239, .T. ) ;
#677 = VECTOR ( 'NONE', #81, 1000.000000000000000 ) ;
#678 = DIRECTION ( 'NONE',  ( 0.0000000000000000000, 0.0000000000000000000, 1.000000000000000000 ) ) ;
#679 = VERTEX_POINT ( 'NONE', #420 ) ;
#680 = AXIS2_PLACEMENT_3D ( 'NONE', #972, #853, #964 ) ;
#681 = DIRECTION ( 'NONE',  ( -9.695120493249893013E-17, -1.000000000000000000, 0.0000000000000000000 ) ) ;
#682 = EDGE_CURVE ( 'NONE', #375, #197, #273, .T. ) ;
#683 = DIRECTION ( 'NONE',  ( -1.000000000000000000, 0.0000000000000000000, 0.0000000000000000000 ) ) ;
#684 = DIRECTION ( 'NONE',  ( 0.0000000000000000000, 1.000000000000000000, 0.0000000000000000000 ) ) ;
#685 = ORIENTED_EDGE ( 'NONE', *, *, #369, .F. ) ;
#686 = ORIENTED_EDGE ( 'NONE', *, *, #844, .F. ) ;
#687 = LINE ( 'NONE', #434, #622 ) ;
#688 = EDGE_CURVE ( 'NONE', #1086, #975, #56, .T. ) ;
#689 = DIRECTION ( 'NONE',  ( 1.000000000000000000, -9.695120493249893013E-17, 0.0000000000000000000 ) ) ;
#690 = ORIENTED_EDGE ( 'NONE', *, *, #1012, .T. ) ;
#691 = VERTEX_POINT ( 'NONE', #424 ) ;
#692 = PLANE ( 'NONE',  #956 ) ;
#693 = DIRECTION ( 'NONE',  ( 0.0000000000000000000, 0.0000000000000000000, 1.000000000000000000 ) ) ;
#694 = EDGE_CURVE ( 'NONE', #1036, #504, #766, .T. ) ;
#695 = CARTESIAN_POINT ( 'NONE',  ( -50.49999999999999289, -6.071532165918824042E-15, -50.00000000000000000 ) ) ;
#696 = DIRECTION ( 'NONE',  ( 0.0000000000000000000, 1.000000000000000000, 0.0000000000000000000 ) ) ;
#697 = PLANE ( 'NONE',  #139 ) ;
#698 = VERTEX_POINT ( 'NONE', #1185 ) ;
#699 = VECTOR ( 'NONE', #908, 1000.000000000000000 ) ;
#700 = ORIENTED_EDGE ( 'NONE', *, *, #799, .T. ) ;
#701 = VECTOR ( 'NONE', #1121, 1000.000000000000227 ) ;
#702 = AXIS2_PLACEMENT_3D ( 'NONE', #1184, #1290, #26 ) ;
#703 = VECTOR ( 'NONE', #1327, 1000.000000000000000 ) ;
#704 = DIRECTION ( 'NONE',  ( 0.0000000000000000000, 0.0000000000000000000, 1.000000000000000000 ) ) ;
#705 = ORIENTED_EDGE ( 'NONE', *, *, #422, .T. ) ;
#706 = PRESENTATION_STYLE_ASSIGNMENT (( #588 ) ) ;
#707 = ORIENTED_EDGE ( 'NONE', *, *, #682, .F. ) ;
#708 = CARTESIAN_POINT ( 'NONE',  ( -49.99999999999999289, 51.50000000000000711, -50.00000000000000000 ) ) ;
#709 = AXIS2_PLACEMENT_3D ( 'NONE', #1158, #379, #1243 ) ;
#710 = PLANE ( 'NONE',  #1047 ) ;
#711 = EDGE_CURVE ( 'NONE', #948, #817, #99, .T. ) ;
#712 = VERTEX_POINT ( 'NONE', #225 ) ;
#713 = CARTESIAN_POINT ( 'NONE',  ( -53.00100000000001188, 29.99999999999998579, -25.00000000000000000 ) ) ;
#714 = EDGE_LOOP ( 'NONE', ( #148, #1369, #794, #1109 ) ) ;
#715 = DIRECTION ( 'NONE',  ( 1.000000000000000000, 2.891205793294678819E-16, -0.0000000000000000000 ) ) ;
#716 = FACE_OUTER_BOUND ( 'NONE', #971, .T. ) ;
#717 = AXIS2_PLACEMENT_3D ( 'NONE', #70, #473, #591 ) ;
#718 = VERTEX_POINT ( 'NONE', #848 ) ;
#719 = VECTOR ( 'NONE', #1139, 1000.000000000000000 ) ;
#720 = ORIENTED_EDGE ( 'NONE', *, *, #845, .F. ) ;
#721 = ORIENTED_EDGE ( 'NONE', *, *, #32, .F. ) ;
#722 = DIRECTION ( 'NONE',  ( 1.000000000000000000, 0.0000000000000000000, 0.0000000000000000000 ) ) ;
#723 = EDGE_CURVE ( 'NONE', #927, #1135, #674, .T. ) ;
#724 = CARTESIAN_POINT ( 'NONE',  ( -49.99999999999997868, 5.500000000000018652, -47.50000000000000000 ) ) ;
#725 = ADVANCED_BREP_SHAPE_REPRESENTATION ( 'Nema17 Base', ( #63, #73 ), #928 ) ;
#726 = AXIS2_PLACEMENT_3D ( 'NONE', #260, #263, #1008 ) ;
#727 = EDGE_CURVE ( 'NONE', #800, #1255, #1262, .T. ) ;
#728 = DIRECTION ( 'NONE',  ( -0.0000000000000000000, 1.000000000000000000, -0.0000000000000000000 ) ) ;
#729 = CIRCLE ( 'NONE', #1140, 2.149999999999999023 ) ;
#730 = EDGE_LOOP ( 'NONE', ( #658, #1367, #219, #18 ) ) ;
#731 = VECTOR ( 'NONE', #1080, 1000.000000000000114 ) ;
#732 = DIRECTION ( 'NONE',  ( 0.0000000000000000000, 0.0000000000000000000, 1.000000000000000000 ) ) ;
#733 = FACE_OUTER_BOUND ( 'NONE', #805, .T. ) ;
#734 = ORIENTED_EDGE ( 'NONE', *, *, #1335, .F. ) ;
#735 = AXIS2_PLACEMENT_3D ( 'NONE', #383, #1154, #607 ) ;
#736 = ORIENTED_EDGE ( 'NONE', *, *, #616, .T. ) ;
#737 = ORIENTED_EDGE ( 'NONE', *, *, #1246, .F. ) ;
#738 = AXIS2_PLACEMENT_3D ( 'NONE', #959, #852, #1181 ) ;
#739 = ADVANCED_FACE ( 'NONE', ( #235 ), #430, .T. ) ;
#740 = LINE ( 'NONE', #791, #998 ) ;
#741 = EDGE_CURVE ( 'NONE', #679, #555, #656, .T. ) ;
#742 = DIRECTION ( 'NONE',  ( -1.000000000000000000, -0.0000000000000000000, -0.0000000000000000000 ) ) ;
#743 = CARTESIAN_POINT ( 'NONE',  ( -47.49999999999997868, 3.000000000000000000, -47.50000000000000000 ) ) ;
#744 = FACE_BOUND ( 'NONE', #1352, .T. ) ;
#745 = ORIENTED_EDGE ( 'NONE', *, *, #150, .T. ) ;
#746 = ORIENTED_EDGE ( 'NONE', *, *, #672, .T. ) ;
#747 = LINE ( 'NONE', #14, #1207 ) ;
#748 = ORIENTED_EDGE ( 'NONE', *, *, #945, .T. ) ;
#749 = ADVANCED_FACE ( 'NONE', ( #144 ), #657, .T. ) ;
#750 = LINE ( 'NONE', #833, #453 ) ;
#751 = DIRECTION ( 'NONE',  ( 0.0000000000000000000, 0.0000000000000000000, 1.000000000000000000 ) ) ;
#752 = ORIENTED_EDGE ( 'NONE', *, *, #1371, .T. ) ;
#753 = EDGE_LOOP ( 'NONE', ( #1000, #161, #1117, #1374 ) ) ;
#754 = DIRECTION ( 'NONE',  ( -0.6000000000000001998, 0.7999999999999998224, -0.0000000000000000000 ) ) ;
#755 = ADVANCED_FACE ( 'NONE', ( #803 ), #525, .F. ) ;
#756 = VERTEX_POINT ( 'NONE', #136 ) ;
#757 = DIRECTION ( 'NONE',  ( 0.0000000000000000000, 0.0000000000000000000, 1.000000000000000000 ) ) ;
#758 = PLANE ( 'NONE',  #218 ) ;
#759 = CARTESIAN_POINT ( 'NONE',  ( -11.15000000000000036, -0.001000000000007505302, -42.14999999999999858 ) ) ;
#760 = AXIS2_PLACEMENT_3D ( 'NONE', #282, #389, #173 ) ;
#761 = FACE_BOUND ( 'NONE', #252, .T. ) ;
#762 = ORIENTED_EDGE ( 'NONE', *, *, #315, .F. ) ;
#763 = ORIENTED_EDGE ( 'NONE', *, *, #905, .F. ) ;
#764 = EDGE_CURVE ( 'NONE', #817, #1064, #915, .T. ) ;
#765 = CARTESIAN_POINT ( 'NONE',  ( -53.00100000000001188, 18.94999999999998153, -25.00000000000000000 ) ) ;
#766 = LINE ( 'NONE', #1292, #944 ) ;
#767 = ORIENTED_EDGE ( 'NONE', *, *, #1297, .F. ) ;
#768 = CARTESIAN_POINT ( 'NONE',  ( -40.85000000000000142, -4.911308786417246941E-15, -7.850000000000005862 ) ) ;
#769 = VECTOR ( 'NONE', #570, 1000.000000000000000 ) ;
#770 = ORIENTED_EDGE ( 'NONE', *, *, #505, .F. ) ;
#771 = VERTEX_POINT ( 'NONE', #1199 ) ;
#772 = AXIS2_PLACEMENT_3D ( 'NONE', #356, #438, #1317 ) ;
#773 = CARTESIAN_POINT ( 'NONE',  ( -40.85000000000000142, 3.000000000000000000, -42.14999999999999147 ) ) ;
#774 = CARTESIAN_POINT ( 'NONE',  ( -53.00000000000000000, 14.50000000000013856, -40.50000000000029843 ) ) ;
#775 = EDGE_CURVE ( 'NONE', #868, #1180, #372, .T. ) ;
#776 = DIRECTION ( 'NONE',  ( 0.0000000000000000000, 0.0000000000000000000, 1.000000000000000000 ) ) ;
#777 = DIRECTION ( 'NONE',  ( 0.0000000000000000000, 1.000000000000000000, 0.0000000000000000000 ) ) ;
#778 = FACE_OUTER_BOUND ( 'NONE', #926, .T. ) ;
#779 = CARTESIAN_POINT ( 'NONE',  ( -49.99999999999997868, 14.50000000000013856, -38.75000000000030553 ) ) ;
#780 = ORIENTED_EDGE ( 'NONE', *, *, #850, .T. ) ;
#781 = EDGE_CURVE ( 'NONE', #415, #927, #198, .T. ) ;
#782 = EDGE_LOOP ( 'NONE', ( #1081, #1269, #113, #1329 ) ) ;
#783 = DIRECTION ( 'NONE',  ( -1.000000000000000000, 0.0000000000000000000, 0.0000000000000000000 ) ) ;
#784 = CARTESIAN_POINT ( 'NONE',  ( -11.15000000000000036, -1.340641397266743862E-15, -7.850000000000003197 ) ) ;
#785 = VERTEX_POINT ( 'NONE', #1093 ) ;
#786 = FACE_OUTER_BOUND ( 'NONE', #730, .T. ) ;
#787 = ORIENTED_EDGE ( 'NONE', *, *, #469, .T. ) ;
#788 = CIRCLE ( 'NONE', #829, 1.749999999999999778 ) ;
#789 = ORIENTED_EDGE ( 'NONE', *, *, #598, .T. ) ;
#790 = DIRECTION ( 'NONE',  ( 0.0000000000000000000, 0.7071067811865460184, -0.7071067811865490160 ) ) ;
#791 = CARTESIAN_POINT ( 'NONE',  ( -49.99999999999998579, 23.00000000000000000, -2.500000000000000000 ) ) ;
#792 = FILL_AREA_STYLE ('',( #1344 ) ) ;
#793 = CARTESIAN_POINT ( 'NONE',  ( 0.001000000000001000089, 45.49999999999980815, -9.499999999999978684 ) ) ;
#794 = ORIENTED_EDGE ( 'NONE', *, *, #422, .F. ) ;
#795 = DIRECTION ( 'NONE',  ( -0.7071067811865465735, -8.501428844977114244E-17, 0.7071067811865485719 ) ) ;
#796 = VECTOR ( 'NONE', #487, 1000.000000000000000 ) ;
#797 = FACE_BOUND ( 'NONE', #1157, .T. ) ;
#798 = AXIS2_PLACEMENT_3D ( 'NONE', #341, #977, #567 ) ;
#799 = EDGE_CURVE ( 'NONE', #1316, #671, #1312, .T. ) ;
#800 = VERTEX_POINT ( 'NONE', #1311 ) ;
#801 = EDGE_CURVE ( 'NONE', #322, #1148, #1192, .T. ) ;
#802 = DIRECTION ( 'NONE',  ( 0.0000000000000000000, 0.0000000000000000000, 1.000000000000000000 ) ) ;
#803 = FACE_OUTER_BOUND ( 'NONE', #1284, .T. ) ;
#804 = VECTOR ( 'NONE', #932, 1000.000000000000000 ) ;
#805 = EDGE_LOOP ( 'NONE', ( #355, #1173, #1005, #1295 ) ) ;
#806 = AXIS2_PLACEMENT_3D ( 'NONE', #313, #832, #722 ) ;
#807 = APPLICATION_CONTEXT ( 'automotive_design' ) ;
#808 = DIRECTION ( 'NONE',  ( -0.0000000000000000000, -0.0000000000000000000, 1.000000000000000000 ) ) ;
#809 = LINE ( 'NONE', #1155, #699 ) ;
#810 = FACE_BOUND ( 'NONE', #7, .T. ) ;
#811 = EDGE_CURVE ( 'NONE', #691, #771, #1244, .T. ) ;
#812 = ORIENTED_EDGE ( 'NONE', *, *, #529, .T. ) ;
#813 = ORIENTED_EDGE ( 'NONE', *, *, #1116, .T. ) ;
#814 = AXIS2_PLACEMENT_3D ( 'NONE', #299, #208, #879 ) ;
#815 = LINE ( 'NONE', #1315, #1370 ) ;
#816 = EDGE_CURVE ( 'NONE', #468, #1319, #39, .T. ) ;
#817 = VERTEX_POINT ( 'NONE', #974 ) ;
#818 = LINE ( 'NONE', #907, #677 ) ;
#819 = ORIENTED_EDGE ( 'NONE', *, *, #1342, .F. ) ;
#820 = CARTESIAN_POINT ( 'NONE',  ( -11.15000000000000036, 3.000000000000000000, -42.14999999999999858 ) ) ;
#821 = CARTESIAN_POINT ( 'NONE',  ( 2.908536147974967657E-16, 3.000000000000000000, -5.000000000000018652 ) ) ;
#822 = ORIENTED_EDGE ( 'NONE', *, *, #858, .F. ) ;
#823 = DIRECTION ( 'NONE',  ( -1.000000000000000000, -0.0000000000000000000, -0.0000000000000000000 ) ) ;
#824 = ORIENTED_EDGE ( 'NONE', *, *, #358, .T. ) ;
#825 = VECTOR ( 'NONE', #348, 1000.000000000000000 ) ;
#826 = ORIENTED_EDGE ( 'NONE', *, *, #1286, .F. ) ;
#827 = ORIENTED_EDGE ( 'NONE', *, *, #1050, .F. ) ;
#828 = LINE ( 'NONE', #646, #289 ) ;
#829 = AXIS2_PLACEMENT_3D ( 'NONE', #288, #181, #1253 ) ;
#830 = VECTOR ( 'NONE', #230, 1000.000000000000000 ) ;
#831 = VERTEX_POINT ( 'NONE', #1098 ) ;
#832 = DIRECTION ( 'NONE',  ( 0.0000000000000000000, 0.0000000000000000000, 1.000000000000000000 ) ) ;
#833 = CARTESIAN_POINT ( 'NONE',  ( -52.99999999999998579, 46.50000000000000000, 0.0000000000000000000 ) ) ;
#834 = EDGE_CURVE ( 'NONE', #292, #831, #1203, .T. ) ;
#835 = PRESENTATION_LAYER_ASSIGNMENT (  '', '', ( #1363 ) ) ;
#836 = CARTESIAN_POINT ( 'NONE',  ( -49.49999999999998579, 3.500000000000000000, -50.00000000000000000 ) ) ;
#837 = CARTESIAN_POINT ( 'NONE',  ( -49.99999999999997868, 5.500000000000018652, -2.500000000000000000 ) ) ;
#838 = LINE ( 'NONE', #47, #330 ) ;
#839 = DIRECTION ( 'NONE',  ( 1.000000000000000000, -1.734723475976809560E-16, -0.0000000000000000000 ) ) ;
#840 = ORIENTED_EDGE ( 'NONE', *, *, #945, .F. ) ;
#841 = ORIENTED_EDGE ( 'NONE', *, *, #304, .T. ) ;
#842 = CIRCLE ( 'NONE', #11, 0.4999999999999935052 ) ;
#843 = DIRECTION ( 'NONE',  ( 0.0000000000000000000, 0.0000000000000000000, 1.000000000000000000 ) ) ;
#844 = EDGE_CURVE ( 'NONE', #1123, #416, #898, .T. ) ;
#845 = EDGE_CURVE ( 'NONE', #1064, #817, #447, .T. ) ;
#846 = DIRECTION ( 'NONE',  ( -1.000000000000000000, 0.0000000000000000000, 0.0000000000000000000 ) ) ;
#847 = VECTOR ( 'NONE', #790, 1000.000000000000114 ) ;
#848 = CARTESIAN_POINT ( 'NONE',  ( -11.15000000000000036, 3.000000000000000000, -12.15000000000000213 ) ) ;
#849 = LINE ( 'NONE', #108, #1037 ) ;
#850 = EDGE_CURVE ( 'NONE', #712, #1149, #127, .T. ) ;
#851 = ORIENTED_EDGE ( 'NONE', *, *, #632, .F. ) ;
#852 = DIRECTION ( 'NONE',  ( -1.000000000000000000, 0.0000000000000000000, 0.0000000000000000000 ) ) ;
#853 = DIRECTION ( 'NONE',  ( -1.202283597211648686E-16, 1.000000000000000000, -0.0000000000000000000 ) ) ;
#854 = CARTESIAN_POINT ( 'NONE',  ( -5.000000000000002665, -6.011417986058246390E-16, 0.0000000000000000000 ) ) ;
#855 = DIRECTION ( 'NONE',  ( 0.0000000000000000000, 0.0000000000000000000, -1.000000000000000000 ) ) ;
#856 = AXIS2_PLACEMENT_3D ( 'NONE', #1332, #1124, #1234 ) ;
#857 = FACE_BOUND ( 'NONE', #1356, .T. ) ;
#858 = EDGE_CURVE ( 'NONE', #295, #548, #106, .T. ) ;
#859 = DIRECTION ( 'NONE',  ( 1.000000000000000000, 1.202283597211648686E-16, 1.168163956886738705E-16 ) ) ;
#860 = ORIENTED_EDGE ( 'NONE', *, *, #1342, .T. ) ;
#861 = DIRECTION ( 'NONE',  ( -1.000000000000000000, -1.202283597211648686E-16, 2.336327913773477411E-16 ) ) ;
#862 = ORIENTED_EDGE ( 'NONE', *, *, #1050, .T. ) ;
#863 = CYLINDRICAL_SURFACE ( 'NONE', #93, 1.750000000000004219 ) ;
#864 = VERTEX_POINT ( 'NONE', #204 ) ;
#865 = CARTESIAN_POINT ( 'NONE',  ( -49.99999999999998579, 23.00000000000000000, -2.500000000000000000 ) ) ;
#866 = CARTESIAN_POINT ( 'NONE',  ( -49.99999999999999289, 49.00000000000000711, -47.50000000000000000 ) ) ;
#867 = AXIS2_PLACEMENT_3D ( 'NONE', #708, #715, #916 ) ;
#868 = VERTEX_POINT ( 'NONE', #312 ) ;
#869 = DIRECTION ( 'NONE',  ( 0.0000000000000000000, 0.0000000000000000000, 1.000000000000000000 ) ) ;
#870 = CARTESIAN_POINT ( 'NONE',  ( -49.99999999999999289, 45.49999999999980815, -9.499999999999978684 ) ) ;
#871 = PLANE ( 'NONE',  #244 ) ;
#872 = CARTESIAN_POINT ( 'NONE',  ( -2.249999999999925837, 3.000000000000000000, -2.750000000000078604 ) ) ;
#873 = DIRECTION ( 'NONE',  ( 0.0000000000000000000, 1.000000000000000000, 0.0000000000000000000 ) ) ;
#874 = AXIS2_PLACEMENT_3D ( 'NONE', #1060, #1282, #530 ) ;
#875 = FACE_OUTER_BOUND ( 'NONE', #1038, .T. ) ;
#876 = ORIENTED_EDGE ( 'NONE', *, *, #811, .T. ) ;
#877 = ORIENTED_EDGE ( 'NONE', *, *, #845, .T. ) ;
#878 = CIRCLE ( 'NONE', #772, 2.149999999999999023 ) ;
#879 = DIRECTION ( 'NONE',  ( -1.000000000000000000, 0.0000000000000000000, 0.0000000000000000000 ) ) ;
#880 = CARTESIAN_POINT ( 'NONE',  ( -49.99999999999999289, 46.50000000000000711, 0.0000000000000000000 ) ) ;
#881 = LINE ( 'NONE', #242, #769 ) ;
#882 = ORIENTED_EDGE ( 'NONE', *, *, #80, .F. ) ;
#883 = VECTOR ( 'NONE', #1254, 1000.000000000000000 ) ;
#884 = ORIENTED_EDGE ( 'NONE', *, *, #102, .T. ) ;
#885 = AXIS2_PLACEMENT_3D ( 'NONE', #649, #27, #751 ) ;
#886 = DIRECTION ( 'NONE',  ( -0.0000000000000000000, -1.000000000000000000, -0.0000000000000000000 ) ) ;
#887 = FILL_AREA_STYLE ('',( #153 ) ) ;
#888 = DIRECTION ( 'NONE',  ( 1.000000000000000000, 2.312964634635741083E-15, 0.0000000000000000000 ) ) ;
#889 = UNCERTAINTY_MEASURE_WITH_UNIT (LENGTH_MEASURE( 1.000000000000000082E-05 ), #900, 'distance_accuracy_value', 'NONE');
#890 = DIRECTION ( 'NONE',  ( -1.168163956886738705E-16, 0.0000000000000000000, 1.000000000000000000 ) ) ;
#891 = CARTESIAN_POINT ( 'NONE',  ( -5.000000000000031974, 2.499999999999989786, -50.00000000000000000 ) ) ;
#892 =( LENGTH_UNIT ( ) NAMED_UNIT ( * ) SI_UNIT ( .MILLI., .METRE. ) );
#893 = DIRECTION ( 'NONE',  ( 1.000000000000000000, 1.202283597211648686E-16, 0.0000000000000000000 ) ) ;
#894 = FACE_OUTER_BOUND ( 'NONE', #1162, .T. ) ;
#895 = DIRECTION ( 'NONE',  ( -1.000000000000000000, -2.891205793294678819E-16, 0.0000000000000000000 ) ) ;
#896 = DIRECTION ( 'NONE',  ( -1.000000000000000000, -0.0000000000000000000, -0.0000000000000000000 ) ) ;
#897 = ORIENTED_EDGE ( 'NONE', *, *, #1310, .T. ) ;
#898 = LINE ( 'NONE', #947, #1146 ) ;
#899 = FACE_OUTER_BOUND ( 'NONE', #12, .T. ) ;
#900 =( LENGTH_UNIT ( ) NAMED_UNIT ( * ) SI_UNIT ( .MILLI., .METRE. ) );
#901 = CARTESIAN_POINT ( 'NONE',  ( -53.00000000000000000, 46.49999999999998579, -50.00000000000000000 ) ) ;
#902 = ORIENTED_EDGE ( 'NONE', *, *, #850, .F. ) ;
#903 = DIRECTION ( 'NONE',  ( -1.000000000000000000, -2.891205793294678819E-16, 0.0000000000000000000 ) ) ;
#904 = CARTESIAN_POINT ( 'NONE',  ( -53.00000000000000000, 14.49999999999981171, -9.500000000000301981 ) ) ;
#905 = EDGE_CURVE ( 'NONE', #644, #679, #381, .T. ) ;
#906 = EDGE_CURVE ( 'NONE', #800, #1123, #353, .T. ) ;
#907 = CARTESIAN_POINT ( 'NONE',  ( -49.99999999999998579, 23.00000000000000000, -47.50000000000000000 ) ) ;
#908 = DIRECTION ( 'NONE',  ( -1.000000000000000000, -0.0000000000000000000, -0.0000000000000000000 ) ) ;
#909 = FACE_OUTER_BOUND ( 'NONE', #1350, .T. ) ;
#910 = ORIENTED_EDGE ( 'NONE', *, *, #995, .F. ) ;
#911 = EDGE_CURVE ( 'NONE', #712, #292, #1225, .T. ) ;
#912 = PRODUCT_DEFINITION_FORMATION_WITH_SPECIFIED_SOURCE ( 'ANY', '', #92, .NOT_KNOWN. ) ;
#913 = DIRECTION ( 'NONE',  ( 0.0000000000000000000, 0.0000000000000000000, 1.000000000000000000 ) ) ;
#914 = CARTESIAN_POINT ( 'NONE',  ( -50.50000000000009948, 46.50000000000000711, 0.0000000000000000000 ) ) ;
#915 = CIRCLE ( 'NONE', #798, 1.749999999999994671 ) ;
#916 = DIRECTION ( 'NONE',  ( -2.891205793294678819E-16, 1.000000000000000000, 0.0000000000000000000 ) ) ;
#917 = CIRCLE ( 'NONE', #1218, 2.149999999999999023 ) ;
#918 = ORIENTED_EDGE ( 'NONE', *, *, #616, .F. ) ;
#919 = LINE ( 'NONE', #940, #1338 ) ;
#920 = EDGE_LOOP ( 'NONE', ( #789, #202, #394, #763 ) ) ;
#921 = DIRECTION ( 'NONE',  ( -1.000000000000000000, -0.0000000000000000000, -0.0000000000000000000 ) ) ;
#922 = EDGE_CURVE ( 'NONE', #1030, #68, #333, .T. ) ;
#923 = VECTOR ( 'NONE', #277, 1000.000000000000000 ) ;
#924 = DIRECTION ( 'NONE',  ( -1.000000000000000000, 0.0000000000000000000, 0.0000000000000000000 ) ) ;
#925 = VECTOR ( 'NONE', #795, 1000.000000000000000 ) ;
#926 = EDGE_LOOP ( 'NONE', ( #1302, #1165, #700, #991 ) ) ;
#927 = VERTEX_POINT ( 'NONE', #1175 ) ;
#928 =( GEOMETRIC_REPRESENTATION_CONTEXT ( 3 ) GLOBAL_UNCERTAINTY_ASSIGNED_CONTEXT ( ( #889 ) ) GLOBAL_UNIT_ASSIGNED_CONTEXT ( ( #900, #268, #1357 ) ) REPRESENTATION_CONTEXT ( 'NONE', 'WORKASPACE' ) );
#929 = EDGE_LOOP ( 'NONE', ( #165, #1328, #999, #746 ) ) ;
#930 = FACE_OUTER_BOUND ( 'NONE', #251, .T. ) ;
#931 = CARTESIAN_POINT ( 'NONE',  ( -49.99999999999998579, 29.99999999999998579, -25.00000000000000000 ) ) ;
#932 = DIRECTION ( 'NONE',  ( -1.000000000000000000, -0.0000000000000000000, -0.0000000000000000000 ) ) ;
#933 = ORIENTED_EDGE ( 'NONE', *, *, #15, .T. ) ;
#934 = ORIENTED_EDGE ( 'NONE', *, *, #55, .F. ) ;
#935 = CARTESIAN_POINT ( 'NONE',  ( -34.99999999999998579, 3.000000000000000000, -47.50000000000000000 ) ) ;
#936 = AXIS2_PLACEMENT_3D ( 'NONE', #931, #518, #627 ) ;
#937 = EDGE_CURVE ( 'NONE', #194, #375, #842, .T. ) ;
#938 = ORIENTED_EDGE ( 'NONE', *, *, #723, .F. ) ;
#939 = DIRECTION ( 'NONE',  ( 1.000000000000000000, -0.0000000000000000000, -0.0000000000000000000 ) ) ;
#940 = CARTESIAN_POINT ( 'NONE',  ( -49.49999999999998579, 3.000000000000000000, -50.00000000000000000 ) ) ;
#941 = FACE_BOUND ( 'NONE', #1264, .T. ) ;
#942 = DIRECTION ( 'NONE',  ( 0.0000000000000000000, 0.0000000000000000000, 1.000000000000000000 ) ) ;
#943 = ORIENTED_EDGE ( 'NONE', *, *, #410, .T. ) ;
#944 = VECTOR ( 'NONE', #537, 1000.000000000000000 ) ;
#945 = EDGE_CURVE ( 'NONE', #831, #620, #687, .T. ) ;
#946 = VECTOR ( 'NONE', #565, 1000.000000000000000 ) ;
#947 = CARTESIAN_POINT ( 'NONE',  ( -49.49999999999998579, 3.000000000000000000, 0.0000000000000000000 ) ) ;
#948 = VERTEX_POINT ( 'NONE', #1071 ) ;
#949 = VECTOR ( 'NONE', #888, 1000.000000000000000 ) ;
#950 = DIRECTION ( 'NONE',  ( 3.965082230804134657E-16, -1.000000000000000000, 0.0000000000000000000 ) ) ;
#951 = DIRECTION ( 'NONE',  ( -1.000000000000000000, 0.0000000000000000000, 0.0000000000000000000 ) ) ;
#952 = EDGE_LOOP ( 'NONE', ( #938, #512, #1216, #1072 ) ) ;
#953 = ADVANCED_FACE ( 'NONE', ( #84 ), #579, .F. ) ;
#954 = ADVANCED_FACE ( 'NONE', ( #1164 ), #352, .F. ) ;
#955 = CARTESIAN_POINT ( 'NONE',  ( -49.99999999999998579, 41.04999999999999005, -25.00000000000000000 ) ) ;
#956 = AXIS2_PLACEMENT_3D ( 'NONE', #1273, #962, #1066 ) ;
#957 = EDGE_CURVE ( 'NONE', #124, #1227, #828, .T. ) ;
#958 = ORIENTED_EDGE ( 'NONE', *, *, #390, .T. ) ;
#959 = CARTESIAN_POINT ( 'NONE',  ( -53.00000000000000000, 45.50000000000013500, -40.49999999999997868 ) ) ;
#960 = SHAPE_DEFINITION_REPRESENTATION ( #506, #725 ) ;
#961 = CARTESIAN_POINT ( 'NONE',  ( -11.15000000000000036, 3.000000000000000000, -7.850000000000003197 ) ) ;
#962 = DIRECTION ( 'NONE',  ( 2.336327913773477411E-16, 0.0000000000000000000, 1.000000000000000000 ) ) ;
#963 = ORIENTED_EDGE ( 'NONE', *, *, #1335, .T. ) ;
#964 = DIRECTION ( 'NONE',  ( 1.000000000000000000, 1.202283597211648193E-16, 0.0000000000000000000 ) ) ;
#965 = CARTESIAN_POINT ( 'NONE',  ( -49.99999999999999289, 45.49999999999980815, -9.499999999999978684 ) ) ;
#966 = VECTOR ( 'NONE', #1305, 1000.000000000000114 ) ;
#967 = CARTESIAN_POINT ( 'NONE',  ( -49.99999999999999289, 51.50000000000000711, -50.00000000000000000 ) ) ;
#968 = ORIENTED_EDGE ( 'NONE', *, *, #266, .F. ) ;
#969 = ADVANCED_FACE ( 'NONE', ( #1144 ), #119, .T. ) ;
#970 = SURFACE_STYLE_FILL_AREA ( #792 ) ;
#971 = EDGE_LOOP ( 'NONE', ( #1054, #1224, #1020, #185 ) ) ;
#972 = CARTESIAN_POINT ( 'NONE',  ( -11.15000000000000036, -1.340641397266743862E-15, -10.00000000000000178 ) ) ;
#973 = CARTESIAN_POINT ( 'NONE',  ( -53.00000000000000000, 18.94999999999998153, -25.00000000000000000 ) ) ;
#974 = CARTESIAN_POINT ( 'NONE',  ( -53.00000000000000000, 45.50000000000013500, -42.24999999999997158 ) ) ;
#975 = VERTEX_POINT ( 'NONE', #328 ) ;
#976 = DIRECTION ( 'NONE',  ( 0.0000000000000000000, 0.0000000000000000000, 1.000000000000000000 ) ) ;
#977 = DIRECTION ( 'NONE',  ( -1.000000000000000000, 0.0000000000000000000, 0.0000000000000000000 ) ) ;
#978 = CARTESIAN_POINT ( 'NONE',  ( -5.000000000000004441, 2.499999999999989786, 0.0000000000000000000 ) ) ;
#979 = CARTESIAN_POINT ( 'NONE',  ( -53.00000000000000000, 2.499999999999993783, -50.00000000000000000 ) ) ;
#980 = FACE_BOUND ( 'NONE', #1053, .T. ) ;
#981 = DIRECTION ( 'NONE',  ( -0.7999999999999998224, -0.6000000000000001998, 0.0000000000000000000 ) ) ;
#982 = DIRECTION ( 'NONE',  ( 9.695120493249893013E-17, 1.000000000000000000, 0.0000000000000000000 ) ) ;
#983 = ORIENTED_EDGE ( 'NONE', *, *, #1286, .T. ) ;
#984 = VECTOR ( 'NONE', #223, 1000.000000000000000 ) ;
#985 = LINE ( 'NONE', #264, #703 ) ;
#986 = DIRECTION ( 'NONE',  ( 1.000000000000000000, 2.891205793294678326E-16, -0.0000000000000000000 ) ) ;
#987 = AXIS2_PLACEMENT_3D ( 'NONE', #774, #145, #243 ) ;
#988 = ORIENTED_EDGE ( 'NONE', *, *, #957, .F. ) ;
#989 = FACE_OUTER_BOUND ( 'NONE', #452, .T. ) ;
#990 = DIRECTION ( 'NONE',  ( -0.0000000000000000000, 1.000000000000000000, -0.0000000000000000000 ) ) ;
#991 = ORIENTED_EDGE ( 'NONE', *, *, #540, .T. ) ;
#992 = EDGE_CURVE ( 'NONE', #1316, #401, #547, .T. ) ;
#993 = DIRECTION ( 'NONE',  ( 1.168163956886738705E-16, 0.0000000000000000000, -1.000000000000000000 ) ) ;
#994 = CARTESIAN_POINT ( 'NONE',  ( -53.00000000000000000, 45.49999999999980815, -11.24999999999998224 ) ) ;
#995 = EDGE_CURVE ( 'NONE', #322, #800, #72, .T. ) ;
#996 = SURFACE_STYLE_USAGE ( .BOTH. , #254 ) ;
#997 = EDGE_CURVE ( 'NONE', #468, #6, #1051, .T. ) ;
#998 = VECTOR ( 'NONE', #1119, 1000.000000000000000 ) ;
#999 = ORIENTED_EDGE ( 'NONE', *, *, #150, .F. ) ;
#1000 = ORIENTED_EDGE ( 'NONE', *, *, #358, .F. ) ;
#1001 = DIRECTION ( 'NONE',  ( -1.000000000000000000, -2.891205793294678819E-16, 0.0000000000000000000 ) ) ;
#1002 = DIRECTION ( 'NONE',  ( -2.891205793294678326E-16, 1.000000000000000000, -0.0000000000000000000 ) ) ;
#1003 = CIRCLE ( 'NONE', #581, 2.500000000000002220 ) ;
#1004 = CARTESIAN_POINT ( 'NONE',  ( -2.500000000000002220, -3.005708993029124181E-16, -47.49999999999998579 ) ) ;
#1005 = ORIENTED_EDGE ( 'NONE', *, *, #1032, .F. ) ;
#1006 = ORIENTED_EDGE ( 'NONE', *, *, #1258, .T. ) ;
#1007 = EDGE_CURVE ( 'NONE', #308, #384, #878, .T. ) ;
#1008 = DIRECTION ( 'NONE',  ( -1.000000000000000000, 0.0000000000000000000, 0.0000000000000000000 ) ) ;
#1009 = DIRECTION ( 'NONE',  ( -1.000000000000000000, 0.0000000000000000000, -1.168163956886738705E-16 ) ) ;
#1010 = AXIS2_PLACEMENT_3D ( 'NONE', #1232, #1209, #1118 ) ;
#1011 = FACE_BOUND ( 'NONE', #76, .T. ) ;
#1012 = EDGE_CURVE ( 'NONE', #486, #1106, #16, .T. ) ;
#1013 = APPLICATION_PROTOCOL_DEFINITION ( 'draft international standard', 'automotive_design', 1998, #1130 ) ;
#1014 = CARTESIAN_POINT ( 'NONE',  ( -49.99999999999997868, 3.500000000000000000, -50.00000000000000000 ) ) ;
#1015 = DIRECTION ( 'NONE',  ( -1.000000000000000000, -0.0000000000000000000, -0.0000000000000000000 ) ) ;
#1016 = ORIENTED_EDGE ( 'NONE', *, *, #682, .T. ) ;
#1017 = VECTOR ( 'NONE', #572, 1000.000000000000000 ) ;
#1018 = LINE ( 'NONE', #262, #317 ) ;
#1019 = CARTESIAN_POINT ( 'NONE',  ( 0.001000000000001000089, 14.49999999999981171, -9.500000000000301981 ) ) ;
#1020 = ORIENTED_EDGE ( 'NONE', *, *, #1040, .F. ) ;
#1021 = ORIENTED_EDGE ( 'NONE', *, *, #418, .F. ) ;
#1022 = ORIENTED_EDGE ( 'NONE', *, *, #388, .F. ) ;
#1023 = AXIS2_PLACEMENT_3D ( 'NONE', #1270, #528, #623 ) ;
#1024 = DIRECTION ( 'NONE',  ( -2.336327913773477411E-16, 0.0000000000000000000, -1.000000000000000000 ) ) ;
#1025 = DIRECTION ( 'NONE',  ( 1.000000000000000000, 0.0000000000000000000, 0.0000000000000000000 ) ) ;
#1026 = VERTEX_POINT ( 'NONE', #458 ) ;
#1027 = CARTESIAN_POINT ( 'NONE',  ( -34.99999999999998579, 3.000000000000000000, 0.0000000000000000000 ) ) ;
#1028 = CIRCLE ( 'NONE', #387, 1.749999999999994671 ) ;
#1029 = AXIS2_PLACEMENT_3D ( 'NONE', #195, #939, #395 ) ;
#1030 = VERTEX_POINT ( 'NONE', #773 ) ;
#1031 = EDGE_LOOP ( 'NONE', ( #621, #652 ) ) ;
#1032 = EDGE_CURVE ( 'NONE', #493, #100, #1161, .T. ) ;
#1033 = PLANE ( 'NONE',  #735 ) ;
#1034 = ORIENTED_EDGE ( 'NONE', *, *, #390, .F. ) ;
#1035 = CIRCLE ( 'NONE', #663, 0.4999999999999935052 ) ;
#1036 = VERTEX_POINT ( 'NONE', #779 ) ;
#1037 = VECTOR ( 'NONE', #823, 1000.000000000000000 ) ;
#1038 = EDGE_LOOP ( 'NONE', ( #640, #943, #1163, #1128, #676, #257, #882, #370, #331, #625, #1055, #475, #1016, #1359 ) ) ;
#1039 = DIRECTION ( 'NONE',  ( 1.000000000000000000, 2.891205793294678326E-16, -0.0000000000000000000 ) ) ;
#1040 = EDGE_CURVE ( 'NONE', #6, #594, #1365, .T. ) ;
#1041 = CARTESIAN_POINT ( 'NONE',  ( 0.001000000000001000089, 14.49999999999981171, -7.750000000000301981 ) ) ;
#1042 = ADVANCED_FACE ( 'NONE', ( #366 ), #758, .T. ) ;
#1043 = DIRECTION ( 'NONE',  ( 0.0000000000000000000, 1.000000000000000000, -0.0000000000000000000 ) ) ;
#1044 = VECTOR ( 'NONE', #439, 1000.000000000000000 ) ;
#1045 = EDGE_LOOP ( 'NONE', ( #902, #213, #1129, #34 ) ) ;
#1046 = ORIENTED_EDGE ( 'NONE', *, *, #266, .T. ) ;
#1047 = AXIS2_PLACEMENT_3D ( 'NONE', #496, #1024, #1143 ) ;
#1048 = VECTOR ( 'NONE', #673, 1000.000000000000000 ) ;
#1049 = ORIENTED_EDGE ( 'NONE', *, *, #1297, .T. ) ;
#1050 = EDGE_CURVE ( 'NONE', #100, #415, #521, .T. ) ;
#1051 = LINE ( 'NONE', #1214, #58 ) ;
#1052 = ORIENTED_EDGE ( 'NONE', *, *, #1251, .F. ) ;
#1053 = EDGE_LOOP ( 'NONE', ( #897, #1178 ) ) ;
#1054 = ORIENTED_EDGE ( 'NONE', *, *, #484, .T. ) ;
#1055 = ORIENTED_EDGE ( 'NONE', *, *, #469, .F. ) ;
#1056 = CARTESIAN_POINT ( 'NONE',  ( -11.15000000000000036, -0.001000000000007505302, -10.00000000000000178 ) ) ;
#1057 = AXIS2_PLACEMENT_3D ( 'NONE', #343, #1205, #873 ) ;
#1058 = ADVANCED_FACE ( 'NONE', ( #1104 ), #1272, .F. ) ;
#1059 = ADVANCED_FACE ( 'NONE', ( #284, #483 ), #156, .F. ) ;
#1060 = CARTESIAN_POINT ( 'NONE',  ( -53.00000000000000000, 45.49999999999980815, -9.499999999999978684 ) ) ;
#1061 = CARTESIAN_POINT ( 'NONE',  ( -49.99999999999999289, 51.50000000000000711, -5.000000000000018652 ) ) ;
#1062 = FACE_BOUND ( 'NONE', #176, .T. ) ;
#1063 = CARTESIAN_POINT ( 'NONE',  ( -50.49999999999999289, 2.499999999999993783, -50.00000000000000000 ) ) ;
#1064 = VERTEX_POINT ( 'NONE', #152 ) ;
#1065 = CARTESIAN_POINT ( 'NONE',  ( -49.99999999999998579, 23.00000000000000000, 0.0000000000000000000 ) ) ;
#1066 = DIRECTION ( 'NONE',  ( 1.000000000000000000, 0.0000000000000000000, -2.336327913773477411E-16 ) ) ;
#1067 = ORIENTED_EDGE ( 'NONE', *, *, #694, .T. ) ;
#1068 = ADVANCED_FACE ( 'NONE', ( #193 ), #692, .F. ) ;
#1069 = PRESENTATION_LAYER_ASSIGNMENT (  '', '', ( #1079 ) ) ;
#1070 = CIRCLE ( 'NONE', #610, 1.750000000000001554 ) ;
#1071 = CARTESIAN_POINT ( 'NONE',  ( -49.99999999999999289, 45.50000000000013500, -42.24999999999997158 ) ) ;
#1072 = ORIENTED_EDGE ( 'NONE', *, *, #1339, .T. ) ;
#1073 = FACE_OUTER_BOUND ( 'NONE', #782, .T. ) ;
#1074 = CARTESIAN_POINT ( 'NONE',  ( -53.00000000000000000, 51.50000000000000000, -45.00000000000001421 ) ) ;
#1075 = ORIENTED_EDGE ( 'NONE', *, *, #349, .F. ) ;
#1076 = CARTESIAN_POINT ( 'NONE',  ( 2.908536147974967657E-16, 3.000000000000000000, -45.00000000000000000 ) ) ;
#1077 = ADVANCED_FACE ( 'NONE', ( #536, #141, #894 ), #697, .T. ) ;
#1078 = CARTESIAN_POINT ( 'NONE',  ( 0.0000000000000000000, 0.0000000000000000000, -50.00000000000000000 ) ) ;
#1079 = STYLED_ITEM ( 'NONE', ( #706 ), #63 ) ;
#1080 = DIRECTION ( 'NONE',  ( -0.7071067811865493491, 0.0000000000000000000, -0.7071067811865455743 ) ) ;
#1081 = ORIENTED_EDGE ( 'NONE', *, *, #1167, .T. ) ;
#1082 = DIRECTION ( 'NONE',  ( 1.000000000000000000, 0.0000000000000000000, 0.0000000000000000000 ) ) ;
#1083 = DIRECTION ( 'NONE',  ( 1.000000000000000000, 0.0000000000000000000, 0.0000000000000000000 ) ) ;
#1084 = CARTESIAN_POINT ( 'NONE',  ( -40.85000000000000142, -0.001000000000007505302, -10.00000000000000533 ) ) ;
#1085 = CARTESIAN_POINT ( 'NONE',  ( -49.99999999999998579, 23.00000000000000000, -2.500000000000000000 ) ) ;
#1086 = VERTEX_POINT ( 'NONE', #482 ) ;
#1087 = VECTOR ( 'NONE', #1325, 1000.000000000000000 ) ;
#1088 = ADVANCED_FACE ( 'NONE', ( #67, #980, #857, #941, #96, #875 ), #474, .T. ) ;
#1089 = EDGE_LOOP ( 'NONE', ( #294, #1021, #860, #1006 ) ) ;
#1090 = EDGE_LOOP ( 'NONE', ( #1212, #461, #745, #22 ) ) ;
#1091 = CARTESIAN_POINT ( 'NONE',  ( -49.99999999999998579, 23.00000000000000000, -47.50000000000000000 ) ) ;
#1092 = FACE_OUTER_BOUND ( 'NONE', #1045, .T. ) ;
#1093 = CARTESIAN_POINT ( 'NONE',  ( -11.15000000000000036, 3.000000000000000000, -37.85000000000000142 ) ) ;
#1094 = ORIENTED_EDGE ( 'NONE', *, *, #1375, .F. ) ;
#1095 = CARTESIAN_POINT ( 'NONE',  ( -49.99999999999997868, 14.50000000000013856, -42.25000000000029132 ) ) ;
#1096 = LINE ( 'NONE', #1304, #275 ) ;
#1097 = EDGE_CURVE ( 'NONE', #1132, #1064, #809, .T. ) ;
#1098 = CARTESIAN_POINT ( 'NONE',  ( -5.000000000000031974, 3.000000000000000000, -50.00000000000000000 ) ) ;
#1099 = VERTEX_POINT ( 'NONE', #155 ) ;
#1100 = CARTESIAN_POINT ( 'NONE',  ( -40.85000000000000142, -0.001000000000007505302, -12.15000000000000391 ) ) ;
#1101 = DIRECTION ( 'NONE',  ( -1.000000000000000000, -0.0000000000000000000, -0.0000000000000000000 ) ) ;
#1102 = CARTESIAN_POINT ( 'NONE',  ( -53.00000000000000000, 45.49999999999980815, -7.749999999999975131 ) ) ;
#1103 = AXIS2_PLACEMENT_3D ( 'NONE', #515, #808, #924 ) ;
#1104 = FACE_OUTER_BOUND ( 'NONE', #187, .T. ) ;
#1105 = CARTESIAN_POINT ( 'NONE',  ( -53.00000000000000000, 24.49999999999989697, -72.00000000000000000 ) ) ;
#1106 = VERTEX_POINT ( 'NONE', #821 ) ;
#1107 = VERTEX_POINT ( 'NONE', #516 ) ;
#1108 = CARTESIAN_POINT ( 'NONE',  ( -53.00000000000000000, 46.50000000000000000, 0.0000000000000000000 ) ) ;
#1109 = ORIENTED_EDGE ( 'NONE', *, *, #1189, .F. ) ;
#1110 = CYLINDRICAL_SURFACE ( 'NONE', #885, 1.750000000000004219 ) ;
#1111 = PRODUCT_DEFINITION_CONTEXT ( 'detailed design', #807, 'design' ) ;
#1112 = AXIS2_PLACEMENT_3D ( 'NONE', #169, #364, #683 ) ;
#1113 = ORIENTED_EDGE ( 'NONE', *, *, #992, .T. ) ;
#1114 = CYLINDRICAL_SURFACE ( 'NONE', #806, 0.4999999999999935052 ) ;
#1115 =( NAMED_UNIT ( * ) SI_UNIT ( $, .STERADIAN. ) SOLID_ANGLE_UNIT ( ) );
#1116 = EDGE_CURVE ( 'NONE', #864, #671, #1187, .T. ) ;
#1117 = ORIENTED_EDGE ( 'NONE', *, *, #995, .T. ) ;
#1118 = DIRECTION ( 'NONE',  ( 0.0000000000000000000, 9.419312991729265409E-16, 1.000000000000000000 ) ) ;
#1119 = DIRECTION ( 'NONE',  ( -0.6000000000000001998, 0.7999999999999998224, -0.0000000000000000000 ) ) ;
#1120 = CARTESIAN_POINT ( 'NONE',  ( -49.49999999999998579, 3.000000000000003553, -50.00000000000000000 ) ) ;
#1121 = DIRECTION ( 'NONE',  ( 0.7071067811865494601, 8.501428844977146292E-17, 0.7071067811865455743 ) ) ;
#1122 = EDGE_CURVE ( 'NONE', #771, #1099, #593, .T. ) ;
#1123 = VERTEX_POINT ( 'NONE', #232 ) ;
#1124 = DIRECTION ( 'NONE',  ( -1.000000000000000000, 0.0000000000000000000, 0.0000000000000000000 ) ) ;
#1125 = CARTESIAN_POINT ( 'NONE',  ( -40.85000000000000142, 3.000000000000000000, -37.84999999999999432 ) ) ;
#1126 = PLANE ( 'NONE',  #1237 ) ;
#1127 = VECTOR ( 'NONE', #982, 1000.000000000000000 ) ;
#1128 = ORIENTED_EDGE ( 'NONE', *, *, #775, .T. ) ;
#1129 = ORIENTED_EDGE ( 'NONE', *, *, #393, .T. ) ;
#1130 = APPLICATION_CONTEXT ( 'automotive_design' ) ;
#1131 = VECTOR ( 'NONE', #344, 1000.000000000000000 ) ;
#1132 = VERTEX_POINT ( 'NONE', #360 ) ;
#1133 = CARTESIAN_POINT ( 'NONE',  ( -11.15000000000000036, -0.001000000000007505302, -7.850000000000003197 ) ) ;
#1134 = FACE_OUTER_BOUND ( 'NONE', #920, .T. ) ;
#1135 = VERTEX_POINT ( 'NONE', #552 ) ;
#1136 = AXIS2_PLACEMENT_3D ( 'NONE', #1259, #615, #1361 ) ;
#1137 = CARTESIAN_POINT ( 'NONE',  ( -47.49999999999996447, 3.000000000000000888, -50.00000000000000000 ) ) ;
#1138 = APPLICATION_PROTOCOL_DEFINITION ( 'draft international standard', 'automotive_design', 1998, #807 ) ;
#1139 = DIRECTION ( 'NONE',  ( 1.000000000000000000, 1.202283597211648686E-16, -0.0000000000000000000 ) ) ;
#1140 = AXIS2_PLACEMENT_3D ( 'NONE', #476, #62, #377 ) ;
#1141 = VECTOR ( 'NONE', #1101, 1000.000000000000000 ) ;
#1142 = PRODUCT_DEFINITION ( 'UNKNOWN', '', #912, #1111 ) ;
#1143 = DIRECTION ( 'NONE',  ( -1.000000000000000000, 0.0000000000000000000, 2.336327913773477411E-16 ) ) ;
#1144 = FACE_OUTER_BOUND ( 'NONE', #1337, .T. ) ;
#1145 = ORIENTED_EDGE ( 'NONE', *, *, #1167, .F. ) ;
#1146 = VECTOR ( 'NONE', #128, 1000.000000000000000 ) ;
#1147 = VECTOR ( 'NONE', #478, 1000.000000000000000 ) ;
#1148 = VERTEX_POINT ( 'NONE', #71 ) ;
#1149 = VERTEX_POINT ( 'NONE', #455 ) ;
#1150 = CIRCLE ( 'NONE', #874, 1.750000000000004219 ) ;
#1151 = EDGE_LOOP ( 'NONE', ( #359, #721, #1340, #1288 ) ) ;
#1152 = ORIENTED_EDGE ( 'NONE', *, *, #221, .T. ) ;
#1153 = AXIS2_PLACEMENT_3D ( 'NONE', #965, #1198, #226 ) ;
#1154 = DIRECTION ( 'NONE',  ( -0.7071067811865455743, 6.855485445197645627E-17, 0.7071067811865494601 ) ) ;
#1155 = CARTESIAN_POINT ( 'NONE',  ( 0.001000000000001000089, 45.50000000000013500, -38.74999999999998579 ) ) ;
#1156 = ADVANCED_FACE ( 'NONE', ( #1062, #797, #407, #574, #761, #246 ), #1245, .T. ) ;
#1157 = EDGE_LOOP ( 'NONE', ( #214, #1236 ) ) ;
#1158 = CARTESIAN_POINT ( 'NONE',  ( -47.49999999999997868, 5.500000000000002665, -47.50000000000000000 ) ) ;
#1159 = ADVANCED_FACE ( 'NONE', ( #619 ), #580, .F. ) ;
#1160 = EDGE_CURVE ( 'NONE', #1289, #523, #603, .T. ) ;
#1161 = LINE ( 'NONE', #1105, #311 ) ;
#1162 = EDGE_LOOP ( 'NONE', ( #363, #519, #780, #752, #19, #510 ) ) ;
#1163 = ORIENTED_EDGE ( 'NONE', *, *, #494, .T. ) ;
#1164 = FACE_OUTER_BOUND ( 'NONE', #1330, .T. ) ;
#1165 = ORIENTED_EDGE ( 'NONE', *, *, #992, .F. ) ;
#1166 = AXIS2_PLACEMENT_3D ( 'NONE', #227, #666, #40 ) ;
#1167 = EDGE_CURVE ( 'NONE', #308, #785, #838, .T. ) ;
#1168 = PLANE ( 'NONE',  #1023 ) ;
#1169 = VECTOR ( 'NONE', #46, 1000.000000000000000 ) ;
#1170 = CARTESIAN_POINT ( 'NONE',  ( -11.15000000000000036, -1.340641397266743862E-15, -12.15000000000000036 ) ) ;
#1171 = EDGE_LOOP ( 'NONE', ( #520, #499, #983, #54 ) ) ;
#1172 = AXIS2_PLACEMENT_3D ( 'NONE', #1056, #642, #942 ) ;
#1173 = ORIENTED_EDGE ( 'NONE', *, *, #48, .F. ) ;
#1174 = VECTOR ( 'NONE', #654, 1000.000000000000000 ) ;
#1175 = CARTESIAN_POINT ( 'NONE',  ( -53.00000000000000000, 2.499999999999993783, 0.0000000000000000000 ) ) ;
#1176 = DIRECTION ( 'NONE',  ( -1.000000000000000000, -0.0000000000000000000, -0.0000000000000000000 ) ) ;
#1177 = LINE ( 'NONE', #1091, #830 ) ;
#1178 = ORIENTED_EDGE ( 'NONE', *, *, #1345, .T. ) ;
#1179 = LINE ( 'NONE', #3, #324 ) ;
#1180 = VERTEX_POINT ( 'NONE', #667 ) ;
#1181 = DIRECTION ( 'NONE',  ( 0.0000000000000000000, 0.0000000000000000000, 1.000000000000000000 ) ) ;
#1182 = CARTESIAN_POINT ( 'NONE',  ( 2.908536147974967657E-16, 3.000000000000000000, -50.00000000000000000 ) ) ;
#1183 = AXIS2_PLACEMENT_3D ( 'NONE', #1336, #160, #270 ) ;
#1184 = CARTESIAN_POINT ( 'NONE',  ( -53.00000000000000000, 51.50000000000000000, -50.00000000000000000 ) ) ;
#1185 = CARTESIAN_POINT ( 'NONE',  ( -40.85000000000000142, -4.911328494609585983E-15, -42.14999999999999858 ) ) ;
#1186 = LINE ( 'NONE', #695, #796 ) ;
#1187 = CIRCLE ( 'NONE', #936, 11.05000000000000426 ) ;
#1188 = CARTESIAN_POINT ( 'NONE',  ( 0.001000000000001000089, 14.49999999999981171, -9.500000000000301981 ) ) ;
#1189 = EDGE_CURVE ( 'NONE', #698, #495, #229, .T. ) ;
#1190 = CARTESIAN_POINT ( 'NONE',  ( -47.49999999999997868, 5.500000000000002665, -47.50000000000000000 ) ) ;
#1191 = ORIENTED_EDGE ( 'NONE', *, *, #711, .F. ) ;
#1192 = LINE ( 'NONE', #456, #1017 ) ;
#1193 = CARTESIAN_POINT ( 'NONE',  ( -40.85000000000000142, 3.000000000000000000, -39.99999999999999289 ) ) ;
#1194 = ADVANCED_FACE ( 'NONE', ( #778 ), #267, .F. ) ;
#1195 = CYLINDRICAL_SURFACE ( 'NONE', #403, 1.749999999999994671 ) ;
#1196 = CARTESIAN_POINT ( 'NONE',  ( -11.15000000000000036, -1.340641397266743862E-15, -7.850000000000003197 ) ) ;
#1197 = ORIENTED_EDGE ( 'NONE', *, *, #1354, .F. ) ;
#1198 = DIRECTION ( 'NONE',  ( -1.000000000000000000, -2.891205793294678819E-16, 0.0000000000000000000 ) ) ;
#1199 = CARTESIAN_POINT ( 'NONE',  ( -49.99999999999997868, 14.49999999999981171, -11.25000000000030198 ) ) ;
#1200 = DIRECTION ( 'NONE',  ( -0.0000000000000000000, -0.7071067811865489050, -0.7071067811865461294 ) ) ;
#1201 = CARTESIAN_POINT ( 'NONE',  ( -40.85000000000000142, -4.911308786417246941E-15, -39.99999999999999289 ) ) ;
#1202 = VERTEX_POINT ( 'NONE', #768 ) ;
#1203 = LINE ( 'NONE', #350, #731 ) ;
#1204 = AXIS2_PLACEMENT_3D ( 'NONE', #233, #776, #357 ) ;
#1205 = DIRECTION ( 'NONE',  ( 1.000000000000000000, 2.891205793294678326E-16, -0.0000000000000000000 ) ) ;
#1206 = CARTESIAN_POINT ( 'NONE',  ( -53.00000000000000000, 14.50000000000013856, -42.25000000000029132 ) ) ;
#1207 = VECTOR ( 'NONE', #535, 1000.000000000000000 ) ;
#1208 = EDGE_CURVE ( 'NONE', #124, #295, #301, .T. ) ;
#1209 = DIRECTION ( 'NONE',  ( 1.000000000000000000, -0.0000000000000000000, -0.0000000000000000000 ) ) ;
#1210 = EDGE_LOOP ( 'NONE', ( #705, #812, #1145, #611 ) ) ;
#1211 = CYLINDRICAL_SURFACE ( 'NONE', #709, 2.500000000000002220 ) ;
#1212 = ORIENTED_EDGE ( 'NONE', *, *, #1040, .T. ) ;
#1213 = ORIENTED_EDGE ( 'NONE', *, *, #221, .F. ) ;
#1214 = CARTESIAN_POINT ( 'NONE',  ( -34.99999999999998579, 3.000000000000000000, -47.50000000000000000 ) ) ;
#1215 = DIRECTION ( 'NONE',  ( -0.0000000000000000000, -0.0000000000000000000, -1.000000000000000000 ) ) ;
#1216 = ORIENTED_EDGE ( 'NONE', *, *, #369, .T. ) ;
#1217 = DIRECTION ( 'NONE',  ( 0.0000000000000000000, 1.000000000000000000, 0.0000000000000000000 ) ) ;
#1218 = AXIS2_PLACEMENT_3D ( 'NONE', #553, #123, #543 ) ;
#1219 = DIRECTION ( 'NONE',  ( 0.0000000000000000000, -0.0000000000000000000, 1.000000000000000000 ) ) ;
#1220 = CARTESIAN_POINT ( 'NONE',  ( -49.99999999999998579, 22.99999999999999289, -47.50000000000000000 ) ) ;
#1221 = LINE ( 'NONE', #891, #923 ) ;
#1222 = ORIENTED_EDGE ( 'NONE', *, *, #207, .T. ) ;
#1223 = PLANE ( 'NONE',  #1306 ) ;
#1224 = ORIENTED_EDGE ( 'NONE', *, *, #410, .F. ) ;
#1225 = LINE ( 'NONE', #1076, #608 ) ;
#1226 = EDGE_CURVE ( 'NONE', #454, #486, #501, .T. ) ;
#1227 = VERTEX_POINT ( 'NONE', #1102 ) ;
#1228 = VECTOR ( 'NONE', #592, 1000.000000000000000 ) ;
#1229 = DIRECTION ( 'NONE',  ( 0.0000000000000000000, 1.000000000000000000, 0.0000000000000000000 ) ) ;
#1230 = CARTESIAN_POINT ( 'NONE',  ( -34.99999999999998579, 3.000000000000000000, -47.50000000000000000 ) ) ;
#1231 = ORIENTED_EDGE ( 'NONE', *, *, #1271, .T. ) ;
#1232 = CARTESIAN_POINT ( 'NONE',  ( -53.00000000000000000, 29.99999999999998579, -25.00000000000000000 ) ) ;
#1233 = EDGE_CURVE ( 'NONE', #504, #523, #557, .T. ) ;
#1234 = DIRECTION ( 'NONE',  ( 0.0000000000000000000, 0.0000000000000000000, 1.000000000000000000 ) ) ;
#1235 = CARTESIAN_POINT ( 'NONE',  ( -47.49999999999997868, 5.500000000000002665, -50.00000000000000000 ) ) ;
#1236 = ORIENTED_EDGE ( 'NONE', *, *, #102, .F. ) ;
#1237 = AXIS2_PLACEMENT_3D ( 'NONE', #1133, #890, #362 ) ;
#1238 = VERTEX_POINT ( 'NONE', #573 ) ;
#1239 = EDGE_CURVE ( 'NONE', #1180, #648, #351, .T. ) ;
#1240 = CARTESIAN_POINT ( 'NONE',  ( -11.15000000000000036, 3.000000000000000000, -40.00000000000000000 ) ) ;
#1241 = LINE ( 'NONE', #52, #825 ) ;
#1242 = ORIENTED_EDGE ( 'NONE', *, *, #688, .F. ) ;
#1243 = DIRECTION ( 'NONE',  ( -1.000000000000000000, 0.0000000000000000000, 0.0000000000000000000 ) ) ;
#1244 = CIRCLE ( 'NONE', #633, 1.750000000000001554 ) ;
#1245 = PLANE ( 'NONE',  #346 ) ;
#1246 = EDGE_CURVE ( 'NONE', #384, #698, #104, .T. ) ;
#1247 = VECTOR ( 'NONE', #436, 1000.000000000000000 ) ;
#1248 = ORIENTED_EDGE ( 'NONE', *, *, #834, .F. ) ;
#1249 = VERTEX_POINT ( 'NONE', #149 ) ;
#1250 = VECTOR ( 'NONE', #1002, 1000.000000000000000 ) ;
#1251 = EDGE_CURVE ( 'NONE', #756, #648, #1241, .T. ) ;
#1252 = ORIENTED_EDGE ( 'NONE', *, *, #315, .T. ) ;
#1253 = DIRECTION ( 'NONE',  ( 0.0000000000000000000, 0.0000000000000000000, 1.000000000000000000 ) ) ;
#1254 = DIRECTION ( 'NONE',  ( -0.0000000000000000000, -1.000000000000000000, -0.0000000000000000000 ) ) ;
#1255 = VERTEX_POINT ( 'NONE', #245 ) ;
#1256 = AXIS2_PLACEMENT_3D ( 'NONE', #575, #1323, #151 ) ;
#1257 = COLOUR_RGB ( '',0.7921568627450980005, 0.8196078431372548767, 0.9333333333333333481 ) ;
#1258 = EDGE_CURVE ( 'NONE', #1313, #1238, #1348, .T. ) ;
#1259 = CARTESIAN_POINT ( 'NONE',  ( 0.001000000000001000089, 14.50000000000013856, -40.50000000000029843 ) ) ;
#1260 = ORIENTED_EDGE ( 'NONE', *, *, #281, .F. ) ;
#1261 = VERTEX_POINT ( 'NONE', #880 ) ;
#1262 = LINE ( 'NONE', #545, #411 ) ;
#1263 = CARTESIAN_POINT ( 'NONE',  ( -49.99999999999997868, 5.500000000000001776, -50.00000000000000000 ) ) ;
#1264 = EDGE_LOOP ( 'NONE', ( #203, #958 ) ) ;
#1265 = FACE_OUTER_BOUND ( 'NONE', #577, .T. ) ;
#1266 = ORIENTED_EDGE ( 'NONE', *, *, #1310, .F. ) ;
#1267 = DIRECTION ( 'NONE',  ( 1.000000000000000000, -0.0000000000000000000, 1.168163956886738705E-16 ) ) ;
#1268 = ORIENTED_EDGE ( 'NONE', *, *, #418, .T. ) ;
#1269 = ORIENTED_EDGE ( 'NONE', *, *, #2, .T. ) ;
#1270 = CARTESIAN_POINT ( 'NONE',  ( -53.00000000000000000, 51.50000000000000000, -45.00000000000001421 ) ) ;
#1271 = EDGE_CURVE ( 'NONE', #384, #269, #668, .T. ) ;
#1272 = CYLINDRICAL_SURFACE ( 'NONE', #297, 1.749999999999994671 ) ;
#1273 = CARTESIAN_POINT ( 'NONE',  ( -11.15000000000000036, -0.001000000000007505302, -37.85000000000000142 ) ) ;
#1274 = ORIENTED_EDGE ( 'NONE', *, *, #247, .F. ) ;
#1275 = VECTOR ( 'NONE', #417, 1000.000000000000000 ) ;
#1276 = VECTOR ( 'NONE', #167, 1000.000000000000000 ) ;
#1277 = ADVANCED_FACE ( 'NONE', ( #1303 ), #443, .T. ) ;
#1278 = ORIENTED_EDGE ( 'NONE', *, *, #937, .T. ) ;
#1279 = FACE_OUTER_BOUND ( 'NONE', #568, .T. ) ;
#1280 = ORIENTED_EDGE ( 'NONE', *, *, #291, .F. ) ;
#1281 = PRODUCT_RELATED_PRODUCT_CATEGORY ( 'part', '', ( #92 ) ) ;
#1282 = DIRECTION ( 'NONE',  ( -1.000000000000000000, 0.0000000000000000000, 0.0000000000000000000 ) ) ;
#1283 = CARTESIAN_POINT ( 'NONE',  ( 0.001000000000001000089, 45.50000000000013500, -42.24999999999997158 ) ) ;
#1284 = EDGE_LOOP ( 'NONE', ( #1360, #29, #1260, #826 ) ) ;
#1285 = CARTESIAN_POINT ( 'NONE',  ( -49.49999999999998579, 3.000000000000003553, 0.0000000000000000000 ) ) ;
#1286 = EDGE_CURVE ( 'NONE', #555, #1202, #729, .T. ) ;
#1287 = CIRCLE ( 'NONE', #310, 2.500000000000002220 ) ;
#1288 = ORIENTED_EDGE ( 'NONE', *, *, #1226, .F. ) ;
#1289 = VERTEX_POINT ( 'NONE', #1095 ) ;
#1290 = DIRECTION ( 'NONE',  ( -2.312964634635741083E-15, 1.000000000000000000, 0.0000000000000000000 ) ) ;
#1291 = VECTOR ( 'NONE', #122, 1000.000000000000000 ) ;
#1292 = CARTESIAN_POINT ( 'NONE',  ( 0.001000000000001000089, 14.50000000000013856, -38.75000000000030553 ) ) ;
#1293 = ORIENTED_EDGE ( 'NONE', *, *, #664, .T. ) ;
#1294 = FACE_OUTER_BOUND ( 'NONE', #929, .T. ) ;
#1295 = ORIENTED_EDGE ( 'NONE', *, *, #320, .F. ) ;
#1296 = DIRECTION ( 'NONE',  ( 0.0000000000000000000, 0.0000000000000000000, 1.000000000000000000 ) ) ;
#1297 = EDGE_CURVE ( 'NONE', #1099, #503, #35, .T. ) ;
#1298 = ADVANCED_FACE ( 'NONE', ( #1011, #909 ), #1308, .T. ) ;
#1299 = CARTESIAN_POINT ( 'NONE',  ( -11.15000000000000036, -1.340641397266743862E-15, -42.14999999999999858 ) ) ;
#1300 = DIRECTION ( 'NONE',  ( -0.0000000000000000000, 1.000000000000000000, -0.0000000000000000000 ) ) ;
#1301 = CARTESIAN_POINT ( 'NONE',  ( 0.001000000000001000089, 45.50000000000013500, -40.49999999999997868 ) ) ;
#1302 = ORIENTED_EDGE ( 'NONE', *, *, #498, .F. ) ;
#1303 = FACE_OUTER_BOUND ( 'NONE', #952, .T. ) ;
#1304 = CARTESIAN_POINT ( 'NONE',  ( -50.00000000000000000, 74.00000000000000000, -27.50000000000011013 ) ) ;
#1305 = DIRECTION ( 'NONE',  ( -2.044391222244503288E-16, 0.7071067811865489050, 0.7071067811865461294 ) ) ;
#1306 = AXIS2_PLACEMENT_3D ( 'NONE', #1341, #689, #66 ) ;
#1307 = CARTESIAN_POINT ( 'NONE',  ( -49.99999999999998579, 23.00000000000000000, -47.50000000000000000 ) ) ;
#1308 = PLANE ( 'NONE',  #1112 ) ;
#1309 = EDGE_LOOP ( 'NONE', ( #489, #471, #189, #397 ) ) ;
#1310 = EDGE_CURVE ( 'NONE', #1036, #1289, #298, .T. ) ;
#1311 = CARTESIAN_POINT ( 'NONE',  ( -47.49999999999996447, 3.000000000000000888, -2.500000000000000000 ) ) ;
#1312 = LINE ( 'NONE', #551, #1131 ) ;
#1313 = VERTEX_POINT ( 'NONE', #442 ) ;
#1314 = CIRCLE ( 'NONE', #500, 2.500000000000002220 ) ;
#1315 = CARTESIAN_POINT ( 'NONE',  ( -49.99999999999998579, 23.00000000000000000, -50.00000000000000000 ) ) ;
#1316 = VERTEX_POINT ( 'NONE', #157 ) ;
#1317 = DIRECTION ( 'NONE',  ( 1.000000000000000000, 1.202283597211648193E-16, 0.0000000000000000000 ) ) ;
#1318 = DIRECTION ( 'NONE',  ( -1.000000000000000000, -2.891205793294678819E-16, 0.0000000000000000000 ) ) ;
#1319 = VERTEX_POINT ( 'NONE', #1137 ) ;
#1320 = CARTESIAN_POINT ( 'NONE',  ( -47.49999999999996447, 3.000000000000000888, -47.50000000000000000 ) ) ;
#1321 = CARTESIAN_POINT ( 'NONE',  ( -49.99999999999999289, 51.50000000000000711, -50.00000000000000000 ) ) ;
#1322 = AXIS2_PLACEMENT_3D ( 'NONE', #914, #396, #502 ) ;
#1323 = DIRECTION ( 'NONE',  ( -0.0000000000000000000, 1.000000000000000000, -0.0000000000000000000 ) ) ;
#1324 = ORIENTED_EDGE ( 'NONE', *, *, #1097, .T. ) ;
#1325 = DIRECTION ( 'NONE',  ( -0.6000000000000001998, 0.7999999999999998224, 0.0000000000000000000 ) ) ;
#1326 = CARTESIAN_POINT ( 'NONE',  ( -5.000000000000004441, 3.000000000000000888, 0.0000000000000000000 ) ) ;
#1327 = DIRECTION ( 'NONE',  ( 1.000000000000000000, 1.202283597211648686E-16, -2.336327913773477411E-16 ) ) ;
#1328 = ORIENTED_EDGE ( 'NONE', *, *, #816, .F. ) ;
#1329 = ORIENTED_EDGE ( 'NONE', *, *, #1007, .F. ) ;
#1330 = EDGE_LOOP ( 'NONE', ( #36, #445, #884, #98 ) ) ;
#1331 = AXIS2_PLACEMENT_3D ( 'NONE', #1084, #1300, #757 ) ;
#1332 = CARTESIAN_POINT ( 'NONE',  ( -53.00000000000000000, 45.49999999999980815, -9.499999999999978684 ) ) ;
#1333 = DIRECTION ( 'NONE',  ( 0.0000000000000000000, 0.0000000000000000000, 1.000000000000000000 ) ) ;
#1334 = LINE ( 'NONE', #209, #1247 ) ;
#1335 = EDGE_CURVE ( 'NONE', #831, #975, #1221, .T. ) ;
#1336 = CARTESIAN_POINT ( 'NONE',  ( -49.99999999999999289, 45.50000000000013500, -40.49999999999997868 ) ) ;
#1337 = EDGE_LOOP ( 'NONE', ( #1347, #125, #546, #617 ) ) ;
#1338 = VECTOR ( 'NONE', #1176, 1000.000000000000000 ) ;
#1339 = EDGE_CURVE ( 'NONE', #1086, #1135, #1186, .T. ) ;
#1340 = ORIENTED_EDGE ( 'NONE', *, *, #1012, .F. ) ;
#1341 = CARTESIAN_POINT ( 'NONE',  ( 2.908536147974967657E-16, 3.000000000000000000, -50.00000000000000000 ) ) ;
#1342 = EDGE_CURVE ( 'NONE', #1255, #1313, #740, .T. ) ;
#1343 = CARTESIAN_POINT ( 'NONE',  ( 22.49999999999998934, 2.705138093726208509E-15, -27.50000000000007816 ) ) ;
#1344 = FILL_AREA_STYLE_COLOUR ( '', #624 ) ;
#1345 = EDGE_CURVE ( 'NONE', #1289, #1036, #651, .T. ) ;
#1346 = CARTESIAN_POINT ( 'NONE',  ( -34.99999999999998579, 3.000000000000000000, -50.00000000000000000 ) ) ;
#1347 = ORIENTED_EDGE ( 'NONE', *, *, #1239, .F. ) ;
#1348 = LINE ( 'NONE', #1085, #1044 ) ;
#1349 =( LENGTH_UNIT ( ) NAMED_UNIT ( * ) SI_UNIT ( .MILLI., .METRE. ) );
#1350 = EDGE_LOOP ( 'NONE', ( #840, #963, #1242, #685, #827, #147, #560, #184 ) ) ;
#1351 = DIRECTION ( 'NONE',  ( -0.0000000000000000000, -0.0000000000000000000, 1.000000000000000000 ) ) ;
#1352 = EDGE_LOOP ( 'NONE', ( #431, #440, #132, #1274 ) ) ;
#1353 = VECTOR ( 'NONE', #451, 1000.000000000000000 ) ;
#1354 = EDGE_CURVE ( 'NONE', #1132, #948, #1028, .T. ) ;
#1355 = LINE ( 'NONE', #216, #21 ) ;
#1356 = EDGE_LOOP ( 'NONE', ( #613, #736 ) ) ;
#1357 =( NAMED_UNIT ( * ) SI_UNIT ( $, .STERADIAN. ) SOLID_ANGLE_UNIT ( ) );
#1358 = PLANE ( 'NONE',  #449 ) ;
#1359 = ORIENTED_EDGE ( 'NONE', *, *, #672, .F. ) ;
#1360 = ORIENTED_EDGE ( 'NONE', *, *, #505, .T. ) ;
#1361 = DIRECTION ( 'NONE',  ( 0.0000000000000000000, 0.0000000000000000000, 1.000000000000000000 ) ) ;
#1362 = AXIS2_PLACEMENT_3D ( 'NONE', #904, #587, #802 ) ;
#1363 = STYLED_ITEM ( 'NONE', ( #65 ), #725 ) ;
#1364 = DIRECTION ( 'NONE',  ( -1.000000000000000000, 0.0000000000000000000, 0.0000000000000000000 ) ) ;
#1365 = LINE ( 'NONE', #1307, #1087 ) ;
#1366 = EDGE_LOOP ( 'NONE', ( #748, #1022, #121, #88, #1046, #90, #686, #97, #105, #1268, #606, #690, #527, #541 ) ) ;
#1367 = ORIENTED_EDGE ( 'NONE', *, *, #291, .T. ) ;
#1368 = CARTESIAN_POINT ( 'NONE',  ( -49.99999999999999289, 45.49999999999980815, -7.749999999999975131 ) ) ;
#1369 = ORIENTED_EDGE ( 'NONE', *, *, #922, .T. ) ;
#1370 = VECTOR ( 'NONE', #669, 1000.000000000000000 ) ;
#1371 = EDGE_CURVE ( 'NONE', #1149, #454, #462, .T. ) ;
#1372 = ORIENTED_EDGE ( 'NONE', *, *, #630, .F. ) ;
#1373 = LINE ( 'NONE', #618, #719 ) ;
#1374 = ORIENTED_EDGE ( 'NONE', *, *, #906, .T. ) ;
#1375 = EDGE_CURVE ( 'NONE', #1227, #548, #210, .T. ) ;
#1376 = ORIENTED_EDGE ( 'NONE', *, *, #601, .T. ) ;
ENDSEC;
END-ISO-10303-21;
